solid OpenSCAD_Model
  facet normal -2.35514e-16 -1.34693e-17 -1
    outer loop
      vertex -15.9574 3 -15
      vertex -12.1622 12.1622 -15
      vertex -11.3449 3 -15
    endloop
  endfacet
  facet normal -2.35514e-16 -1.34693e-17 -1
    outer loop
      vertex -11.3449 3 -15
      vertex -12.1622 12.1622 -15
      vertex -6.075 14.6837 -15
    endloop
  endfacet
  facet normal -2.35514e-16 -1.34693e-17 -1
    outer loop
      vertex -11.3449 3 -15
      vertex -6.075 14.6837 -15
      vertex -6.075 7.2 -15
    endloop
  endfacet
  facet normal -2.35514e-16 -1.34693e-17 -1
    outer loop
      vertex -11.3449 3 -15
      vertex -6.075 7.2 -15
      vertex -0.5 7.2 -15
    endloop
  endfacet
  facet normal -2.35514e-16 -1.34693e-17 -1
    outer loop
      vertex -0.5 13.457 -15
      vertex -4.30639 15.4162 -15
      vertex -3.01561e-15 17.2 -15
    endloop
  endfacet
  facet normal -2.35514e-16 -1.34693e-17 -1
    outer loop
      vertex -0.5 13.457 -15
      vertex -3.01561e-15 17.2 -15
      vertex -0.5 7.2 -15
    endloop
  endfacet
  facet normal -2.35514e-16 -1.34693e-17 -1
    outer loop
      vertex 0.5 12.9423 -15
      vertex -3.01561e-15 17.2 -15
      vertex 12.1622 12.1622 -15
    endloop
  endfacet
  facet normal -2.35514e-16 -1.34693e-17 -1
    outer loop
      vertex 6.075 7.2 -15
      vertex 12.1622 12.1622 -15
      vertex 15.9574 3 -15
    endloop
  endfacet
  facet normal -2.35514e-16 -1.34693e-17 -1
    outer loop
      vertex 5.13165 3.29791 -15
      vertex 15.9574 3 -15
      vertex 5.30636 3 -15
    endloop
  endfacet
  facet normal -2.35514e-16 -1.34693e-17 -1
    outer loop
      vertex 4.84576 3.70521 -15
      vertex 15.9574 3 -15
      vertex 5.13165 3.29791 -15
    endloop
  endfacet
  facet normal -2.35514e-16 -1.34693e-17 -1
    outer loop
      vertex 4.52763 4.08786 -15
      vertex 15.9574 3 -15
      vertex 4.84576 3.70521 -15
    endloop
  endfacet
  facet normal -2.35514e-16 -1.34693e-17 -1
    outer loop
      vertex 4.17936 4.4433 -15
      vertex 15.9574 3 -15
      vertex 4.52763 4.08786 -15
    endloop
  endfacet
  facet normal -2.35514e-16 -1.34693e-17 -1
    outer loop
      vertex 3.80329 4.76917 -15
      vertex 15.9574 3 -15
      vertex 4.17936 4.4433 -15
    endloop
  endfacet
  facet normal -2.35514e-16 -1.34693e-17 -1
    outer loop
      vertex 3.4019 5.06331 -15
      vertex 15.9574 3 -15
      vertex 3.80329 4.76917 -15
    endloop
  endfacet
  facet normal -2.35514e-16 -1.34693e-17 -1
    outer loop
      vertex 2.97788 5.32374 -15
      vertex 15.9574 3 -15
      vertex 3.4019 5.06331 -15
    endloop
  endfacet
  facet normal -2.35514e-16 -1.34693e-17 -1
    outer loop
      vertex -0.5 7.2 -15
      vertex 15.9574 3 -15
      vertex 2.97788 5.32374 -15
    endloop
  endfacet
  facet normal -2.35514e-16 -1.34693e-17 -1
    outer loop
      vertex -0.5 7.2 -15
      vertex 2.97788 5.32374 -15
      vertex 2.53403 5.54875 -15
    endloop
  endfacet
  facet normal -2.35514e-16 -1.34693e-17 -1
    outer loop
      vertex 1.59882 5.88675 -15
      vertex -0.5 7.2 -15
      vertex 2.07333 5.73684 -15
    endloop
  endfacet
  facet normal -2.35514e-16 -1.34693e-17 -1
    outer loop
      vertex 1.11368 5.99748 -15
      vertex -0.5 7.2 -15
      vertex 1.59882 5.88675 -15
    endloop
  endfacet
  facet normal -2.35514e-16 -1.34693e-17 -1
    outer loop
      vertex -2.3056 5.6475 -15
      vertex -11.3449 3 -15
      vertex -1.8376 5.81663 -15
    endloop
  endfacet
  facet normal -2.35514e-16 -1.34693e-17 -1
    outer loop
      vertex -0.5 7.2 -15
      vertex 1.11368 5.99748 -15
      vertex 0.62112 6.06829 -15
    endloop
  endfacet
  facet normal -2.35514e-16 -1.34693e-17 -1
    outer loop
      vertex -0.5 7.2 -15
      vertex 0.62112 6.06829 -15
      vertex 0.124431 6.09873 -15
    endloop
  endfacet
  facet normal -2.35514e-16 -1.34693e-17 -1
    outer loop
      vertex -0.5 7.2 -15
      vertex 0.124431 6.09873 -15
      vertex -0.373086 6.08858 -15
    endloop
  endfacet
  facet normal -2.35514e-16 -1.34693e-17 -1
    outer loop
      vertex -0.5 7.2 -15
      vertex -0.373086 6.08858 -15
      vertex -0.868121 6.03791 -15
    endloop
  endfacet
  facet normal -2.35514e-16 -1.34693e-17 -1
    outer loop
      vertex -0.5 7.2 -15
      vertex -0.868121 6.03791 -15
      vertex -1.35738 5.94706 -15
    endloop
  endfacet
  facet normal -2.35514e-16 -1.34693e-17 -1
    outer loop
      vertex -0.5 7.2 -15
      vertex -1.35738 5.94706 -15
      vertex -1.8376 5.81663 -15
    endloop
  endfacet
  facet normal -2.35514e-16 -1.34693e-17 -1
    outer loop
      vertex -0.5 7.2 -15
      vertex -1.8376 5.81663 -15
      vertex -11.3449 3 -15
    endloop
  endfacet
  facet normal -2.35514e-16 -1.34693e-17 -1
    outer loop
      vertex -2.75825 5.44078 -15
      vertex -11.3449 3 -15
      vertex -2.3056 5.6475 -15
    endloop
  endfacet
  facet normal -2.35514e-16 -1.34693e-17 -1
    outer loop
      vertex -3.19254 5.19785 -15
      vertex -11.3449 3 -15
      vertex -2.75825 5.44078 -15
    endloop
  endfacet
  facet normal -2.35514e-16 -1.34693e-17 -1
    outer loop
      vertex -3.60559 4.92033 -15
      vertex -11.3449 3 -15
      vertex -3.19254 5.19785 -15
    endloop
  endfacet
  facet normal -2.35514e-16 -1.34693e-17 -1
    outer loop
      vertex -3.99465 4.61007 -15
      vertex -11.3449 3 -15
      vertex -3.60559 4.92033 -15
    endloop
  endfacet
  facet normal -2.35514e-16 -1.34693e-17 -1
    outer loop
      vertex 0.5 7.2 -15
      vertex -0.5 7.2 -15
      vertex 0.5 12.9423 -15
    endloop
  endfacet
  facet normal -2.35514e-16 -1.34693e-17 -1
    outer loop
      vertex -3.99465 4.61007 -15
      vertex -4.35712 4.26913 -15
      vertex -11.3449 3 -15
    endloop
  endfacet
  facet normal -2.35514e-16 -1.34693e-17 -1
    outer loop
      vertex -4.35712 4.26913 -15
      vertex -4.6906 3.89978 -15
      vertex -11.3449 3 -15
    endloop
  endfacet
  facet normal -2.35514e-16 -1.34693e-17 -1
    outer loop
      vertex -4.6906 3.89978 -15
      vertex -4.99286 3.50448 -15
      vertex -11.3449 3 -15
    endloop
  endfacet
  facet normal -2.35514e-16 -1.34693e-17 -1
    outer loop
      vertex -4.99286 3.50448 -15
      vertex -5.26189 3.08585 -15
      vertex -11.3449 3 -15
    endloop
  endfacet
  facet normal -2.35514e-16 -1.34693e-17 -1
    outer loop
      vertex -5.26189 3.08585 -15
      vertex -5.30764 3 -15
      vertex -11.3449 3 -15
    endloop
  endfacet
  facet normal -2.35514e-16 -1.34693e-17 -1
    outer loop
      vertex -0.5 7.2 -15
      vertex -3.01561e-15 17.2 -15
      vertex 0.5 12.9423 -15
    endloop
  endfacet
  facet normal -2.35514e-16 -1.34693e-17 -1
    outer loop
      vertex 6.075 10.0727 -15
      vertex 0.5 12.9423 -15
      vertex 12.1622 12.1622 -15
    endloop
  endfacet
  facet normal -2.35514e-16 -1.34693e-17 -1
    outer loop
      vertex 6.075 10.0727 -15
      vertex 12.1622 12.1622 -15
      vertex 6.075 7.2 -15
    endloop
  endfacet
  facet normal -2.35514e-16 -1.34693e-17 -1
    outer loop
      vertex -0.5 7.2 -15
      vertex 0.5 7.2 -15
      vertex 15.9574 3 -15
    endloop
  endfacet
  facet normal -2.35514e-16 -1.34693e-17 -1
    outer loop
      vertex 0.5 7.2 -15
      vertex 6.075 7.2 -15
      vertex 15.9574 3 -15
    endloop
  endfacet
  facet normal -2.35514e-16 -1.34693e-17 -1
    outer loop
      vertex 2.07333 5.73684 -15
      vertex -0.5 7.2 -15
      vertex 2.53403 5.54875 -15
    endloop
  endfacet
  facet normal -0.92388 0.382683 1.02571e-16
    outer loop
      vertex -15.9574 3 -15
      vertex -15.9574 3 15
      vertex -12.1622 12.1622 -15
    endloop
  endfacet
  facet normal -0.92388 0.382683 1.02571e-16
    outer loop
      vertex -12.1622 12.1622 -15
      vertex -15.9574 3 15
      vertex -12.1622 12.1622 15
    endloop
  endfacet
  facet normal 0 -1 -2.22045e-16
    outer loop
      vertex -15.9574 3 15
      vertex -8.7 3 15
      vertex -5.30764 3 15
    endloop
  endfacet
  facet normal 0 -1 -2.22045e-16
    outer loop
      vertex -11.3449 3 -15
      vertex -8.7 3 15
      vertex -15.9574 3 15
    endloop
  endfacet
  facet normal 0 -1 -2.22045e-16
    outer loop
      vertex -15.9574 3 -15
      vertex -11.3449 3 -15
      vertex -15.9574 3 15
    endloop
  endfacet
  facet normal -0.964593 0.249655 0.0850419
    outer loop
      vertex -12.1214 3.33067e-15 -15
      vertex -9.47646 -3.33067e-15 15
      vertex -11.3449 3 -15
    endloop
  endfacet
  facet normal -0.964593 0.249655 0.0850419
    outer loop
      vertex -11.3449 3 -15
      vertex -9.47646 -3.33067e-15 15
      vertex -8.7 3 15
    endloop
  endfacet
  facet normal 0.882522 -0.470272 0
    outer loop
      vertex -5.26189 3.08585 15
      vertex -5.49591 2.64669 -15
      vertex -5.30764 3 -15
    endloop
  endfacet
  facet normal 0.882522 -0.470272 0
    outer loop
      vertex -5.26189 3.08585 -15
      vertex -5.26189 3.08585 15
      vertex -5.30764 3 -15
    endloop
  endfacet
  facet normal 0.882522 -0.470272 0
    outer loop
      vertex -5.26189 3.08585 15
      vertex -5.30764 3 15
      vertex -5.49591 2.64669 -15
    endloop
  endfacet
  facet normal 0.882522 -0.470272 0
    outer loop
      vertex -5.30764 3 15
      vertex -5.49591 2.64669 15
      vertex -5.49591 2.64669 -15
    endloop
  endfacet
  facet normal 0.841253 -0.540641 0
    outer loop
      vertex -5.26189 3.08585 -15
      vertex -4.99286 3.50448 -15
      vertex -4.99286 3.50448 15
    endloop
  endfacet
  facet normal 0.841253 -0.540641 0
    outer loop
      vertex -5.26189 3.08585 15
      vertex -5.26189 3.08585 -15
      vertex -4.99286 3.50448 15
    endloop
  endfacet
  facet normal 0.794387 -0.607412 0
    outer loop
      vertex -4.99286 3.50448 -15
      vertex -4.6906 3.89978 -15
      vertex -4.6906 3.89978 15
    endloop
  endfacet
  facet normal 0.794387 -0.607412 0
    outer loop
      vertex -4.99286 3.50448 15
      vertex -4.99286 3.50448 -15
      vertex -4.6906 3.89978 15
    endloop
  endfacet
  facet normal 0.742234 -0.670141 0
    outer loop
      vertex -4.6906 3.89978 -15
      vertex -4.35712 4.26913 -15
      vertex -4.35712 4.26913 15
    endloop
  endfacet
  facet normal 0.742234 -0.670141 0
    outer loop
      vertex -4.6906 3.89978 15
      vertex -4.6906 3.89978 -15
      vertex -4.35712 4.26913 15
    endloop
  endfacet
  facet normal 0.685141 -0.728411 0
    outer loop
      vertex -4.35712 4.26913 -15
      vertex -3.99465 4.61007 -15
      vertex -3.99465 4.61007 15
    endloop
  endfacet
  facet normal 0.685141 -0.728411 0
    outer loop
      vertex -4.35712 4.26913 15
      vertex -4.35712 4.26913 -15
      vertex -3.99465 4.61007 15
    endloop
  endfacet
  facet normal 0.623491 -0.781831 0
    outer loop
      vertex -3.99465 4.61007 -15
      vertex -3.60559 4.92033 -15
      vertex -3.60559 4.92033 15
    endloop
  endfacet
  facet normal 0.623491 -0.781831 0
    outer loop
      vertex -3.99465 4.61007 15
      vertex -3.99465 4.61007 -15
      vertex -3.60559 4.92033 15
    endloop
  endfacet
  facet normal 0.557688 -0.830051 0
    outer loop
      vertex -3.60559 4.92033 -15
      vertex -3.19254 5.19785 -15
      vertex -3.19254 5.19785 15
    endloop
  endfacet
  facet normal 0.557688 -0.830051 0
    outer loop
      vertex -3.60559 4.92033 15
      vertex -3.60559 4.92033 -15
      vertex -3.19254 5.19785 15
    endloop
  endfacet
  facet normal 0.488177 -0.872745 0
    outer loop
      vertex -3.19254 5.19785 -15
      vertex -2.75825 5.44078 -15
      vertex -2.75825 5.44078 15
    endloop
  endfacet
  facet normal 0.488177 -0.872745 0
    outer loop
      vertex -3.19254 5.19785 15
      vertex -3.19254 5.19785 -15
      vertex -2.75825 5.44078 15
    endloop
  endfacet
  facet normal 0.415415 -0.909632 0
    outer loop
      vertex -2.75825 5.44078 -15
      vertex -2.3056 5.6475 -15
      vertex -2.3056 5.6475 15
    endloop
  endfacet
  facet normal 0.415415 -0.909632 0
    outer loop
      vertex -2.75825 5.44078 15
      vertex -2.75825 5.44078 -15
      vertex -2.3056 5.6475 15
    endloop
  endfacet
  facet normal 0.339889 -0.940465 0
    outer loop
      vertex -2.3056 5.6475 -15
      vertex -1.8376 5.81663 -15
      vertex -1.8376 5.81663 15
    endloop
  endfacet
  facet normal 0.339889 -0.940465 0
    outer loop
      vertex -2.3056 5.6475 15
      vertex -2.3056 5.6475 -15
      vertex -1.8376 5.81663 15
    endloop
  endfacet
  facet normal 0.262101 -0.96504 0
    outer loop
      vertex -1.8376 5.81663 -15
      vertex -1.35738 5.94706 -15
      vertex -1.35738 5.94706 15
    endloop
  endfacet
  facet normal 0.262101 -0.96504 0
    outer loop
      vertex -1.8376 5.81663 15
      vertex -1.8376 5.81663 -15
      vertex -1.35738 5.94706 15
    endloop
  endfacet
  facet normal 0.182571 -0.983193 0
    outer loop
      vertex -1.35738 5.94706 -15
      vertex -0.868121 6.03791 -15
      vertex -0.868121 6.03791 15
    endloop
  endfacet
  facet normal 0.182571 -0.983193 0
    outer loop
      vertex -1.35738 5.94706 15
      vertex -1.35738 5.94706 -15
      vertex -0.868121 6.03791 15
    endloop
  endfacet
  facet normal 0.101822 -0.994803 0
    outer loop
      vertex -0.868121 6.03791 -15
      vertex -0.373086 6.08858 -15
      vertex -0.373086 6.08858 15
    endloop
  endfacet
  facet normal 0.101822 -0.994803 0
    outer loop
      vertex -0.868121 6.03791 15
      vertex -0.868121 6.03791 -15
      vertex -0.373086 6.08858 15
    endloop
  endfacet
  facet normal 0.0203991 -0.999792 0
    outer loop
      vertex -0.373086 6.08858 -15
      vertex 0.124431 6.09873 -15
      vertex 0.124431 6.09873 15
    endloop
  endfacet
  facet normal 0.0203991 -0.999792 0
    outer loop
      vertex -0.373086 6.08858 15
      vertex -0.373086 6.08858 -15
      vertex 0.124431 6.09873 15
    endloop
  endfacet
  facet normal -0.0611631 -0.998128 0
    outer loop
      vertex 0.124431 6.09873 -15
      vertex 0.62112 6.06829 -15
      vertex 0.62112 6.06829 15
    endloop
  endfacet
  facet normal -0.0611631 -0.998128 0
    outer loop
      vertex 0.124431 6.09873 15
      vertex 0.124431 6.09873 -15
      vertex 0.62112 6.06829 15
    endloop
  endfacet
  facet normal -0.142313 -0.989822 0
    outer loop
      vertex 0.62112 6.06829 -15
      vertex 1.11368 5.99748 -15
      vertex 1.11368 5.99748 15
    endloop
  endfacet
  facet normal -0.142313 -0.989822 0
    outer loop
      vertex 0.62112 6.06829 15
      vertex 0.62112 6.06829 -15
      vertex 1.11368 5.99748 15
    endloop
  endfacet
  facet normal -0.222521 -0.974928 0
    outer loop
      vertex 1.11368 5.99748 -15
      vertex 1.59882 5.88675 -15
      vertex 1.59882 5.88675 15
    endloop
  endfacet
  facet normal -0.222521 -0.974928 0
    outer loop
      vertex 1.11368 5.99748 15
      vertex 1.11368 5.99748 -15
      vertex 1.59882 5.88675 15
    endloop
  endfacet
  facet normal -0.301247 -0.953546 0
    outer loop
      vertex 1.59882 5.88675 -15
      vertex 2.07333 5.73684 -15
      vertex 2.07333 5.73684 15
    endloop
  endfacet
  facet normal -0.301247 -0.953546 0
    outer loop
      vertex 1.59882 5.88675 15
      vertex 1.59882 5.88675 -15
      vertex 2.07333 5.73684 15
    endloop
  endfacet
  facet normal -0.377966 -0.925819 0
    outer loop
      vertex 2.07333 5.73684 -15
      vertex 2.53403 5.54875 -15
      vertex 2.53403 5.54875 15
    endloop
  endfacet
  facet normal -0.377966 -0.925819 0
    outer loop
      vertex 2.07333 5.73684 15
      vertex 2.07333 5.73684 -15
      vertex 2.53403 5.54875 15
    endloop
  endfacet
  facet normal -0.452172 -0.891931 0
    outer loop
      vertex 2.53403 5.54875 -15
      vertex 2.97788 5.32374 -15
      vertex 2.97788 5.32374 15
    endloop
  endfacet
  facet normal -0.452172 -0.891931 0
    outer loop
      vertex 2.53403 5.54875 15
      vertex 2.53403 5.54875 -15
      vertex 2.97788 5.32374 15
    endloop
  endfacet
  facet normal -0.523368 -0.852107 0
    outer loop
      vertex 2.97788 5.32374 -15
      vertex 3.4019 5.06331 -15
      vertex 3.4019 5.06331 15
    endloop
  endfacet
  facet normal -0.523368 -0.852107 0
    outer loop
      vertex 2.97788 5.32374 15
      vertex 2.97788 5.32374 -15
      vertex 3.4019 5.06331 15
    endloop
  endfacet
  facet normal -0.591081 -0.806612 0
    outer loop
      vertex 3.4019 5.06331 -15
      vertex 3.80329 4.76917 -15
      vertex 3.80329 4.76917 15
    endloop
  endfacet
  facet normal -0.591081 -0.806612 0
    outer loop
      vertex 3.4019 5.06331 15
      vertex 3.4019 5.06331 -15
      vertex 3.80329 4.76917 15
    endloop
  endfacet
  facet normal -0.654861 -0.755749 0
    outer loop
      vertex 3.80329 4.76917 -15
      vertex 4.17936 4.4433 -15
      vertex 4.17936 4.4433 15
    endloop
  endfacet
  facet normal -0.654861 -0.755749 0
    outer loop
      vertex 3.80329 4.76917 15
      vertex 3.80329 4.76917 -15
      vertex 4.17936 4.4433 15
    endloop
  endfacet
  facet normal -0.714282 -0.699858 0
    outer loop
      vertex 4.52763 4.08786 -15
      vertex 4.52763 4.08786 15
      vertex 4.17936 4.4433 -15
    endloop
  endfacet
  facet normal -0.714282 -0.699858 0
    outer loop
      vertex 4.17936 4.4433 -15
      vertex 4.52763 4.08786 15
      vertex 4.17936 4.4433 15
    endloop
  endfacet
  facet normal -0.768951 -0.639308 0
    outer loop
      vertex 4.84576 3.70521 -15
      vertex 4.84576 3.70521 15
      vertex 4.52763 4.08786 -15
    endloop
  endfacet
  facet normal -0.768951 -0.639308 0
    outer loop
      vertex 4.52763 4.08786 -15
      vertex 4.84576 3.70521 15
      vertex 4.52763 4.08786 15
    endloop
  endfacet
  facet normal -0.818501 -0.574506 0
    outer loop
      vertex 5.13165 3.29791 -15
      vertex 5.13165 3.29791 15
      vertex 4.84576 3.70521 -15
    endloop
  endfacet
  facet normal -0.818501 -0.574506 0
    outer loop
      vertex 4.84576 3.70521 -15
      vertex 5.13165 3.29791 15
      vertex 4.84576 3.70521 15
    endloop
  endfacet
  facet normal -0.862605 -0.505878 0
    outer loop
      vertex 5.38338 2.86866 15
      vertex 5.30636 3 -15
      vertex 5.38338 2.86866 -15
    endloop
  endfacet
  facet normal -0.862605 -0.505878 0
    outer loop
      vertex 5.13165 3.29791 -15
      vertex 5.30636 3 -15
      vertex 5.38338 2.86866 15
    endloop
  endfacet
  facet normal -0.862605 -0.505878 0
    outer loop
      vertex 5.13165 3.29791 -15
      vertex 5.38338 2.86866 15
      vertex 5.30636 3 15
    endloop
  endfacet
  facet normal -0.862605 -0.505878 0
    outer loop
      vertex 5.13165 3.29791 15
      vertex 5.13165 3.29791 -15
      vertex 5.30636 3 15
    endloop
  endfacet
  facet normal 0 -1 -2.22045e-16
    outer loop
      vertex 15.9574 3 -15
      vertex 15.9574 3 15
      vertex 8.7 3 15
    endloop
  endfacet
  facet normal 0 -1 -2.22045e-16
    outer loop
      vertex 5.30636 3 -15
      vertex 15.9574 3 -15
      vertex 11.3449 3 -15
    endloop
  endfacet
  facet normal 0 -1 -2.22045e-16
    outer loop
      vertex 11.3449 3 -15
      vertex 15.9574 3 -15
      vertex 8.7 3 15
    endloop
  endfacet
  facet normal 0.92388 0.382683 -1.02571e-16
    outer loop
      vertex 15.9574 3 -15
      vertex 12.1622 12.1622 -15
      vertex 12.1622 12.1622 15
    endloop
  endfacet
  facet normal 0.92388 0.382683 -1.02571e-16
    outer loop
      vertex 15.9574 3 15
      vertex 15.9574 3 -15
      vertex 12.1622 12.1622 15
    endloop
  endfacet
  facet normal 0.382683 0.92388 -4.24864e-17
    outer loop
      vertex 6.075 14.6837 5
      vertex 12.1622 12.1622 -15
      vertex 6.075 14.6837 -15
    endloop
  endfacet
  facet normal 0.382683 0.92388 -4.24864e-17
    outer loop
      vertex 6.075 14.6837 5
      vertex 3.15055e-16 17.2 15
      vertex 12.1622 12.1622 15
    endloop
  endfacet
  facet normal 0.382683 0.92388 -4.24864e-17
    outer loop
      vertex -3.01561e-15 17.2 -15
      vertex 3.15055e-16 17.2 15
      vertex 0.5 16.9929 5
    endloop
  endfacet
  facet normal 0.382683 0.92388 -4.24864e-17
    outer loop
      vertex -3.01561e-15 17.2 -15
      vertex 0.5 16.9929 5
      vertex 0.5 16.9929 -15
    endloop
  endfacet
  facet normal 0.382683 0.92388 -4.24864e-17
    outer loop
      vertex -3.01561e-15 17.2 -15
      vertex 0.5 16.9929 -15
      vertex 12.1622 12.1622 -15
    endloop
  endfacet
  facet normal 0.382683 0.92388 -4.24864e-17
    outer loop
      vertex 0.5 16.9929 -15
      vertex 6.075 14.6837 -15
      vertex 12.1622 12.1622 -15
    endloop
  endfacet
  facet normal 0.382683 0.92388 -4.24864e-17
    outer loop
      vertex 12.1622 12.1622 -15
      vertex 6.075 14.6837 5
      vertex 12.1622 12.1622 15
    endloop
  endfacet
  facet normal 0.382683 0.92388 -4.24864e-17
    outer loop
      vertex 0.5 16.9929 5
      vertex 3.15055e-16 17.2 15
      vertex 6.075 14.6837 5
    endloop
  endfacet
  facet normal -0.382683 0.92388 4.24864e-17
    outer loop
      vertex -12.1622 12.1622 -15
      vertex -12.1622 12.1622 15
      vertex -6.075 14.6837 -15
    endloop
  endfacet
  facet normal -0.382683 0.92388 4.24864e-17
    outer loop
      vertex -6.075 14.6837 5
      vertex -12.1622 12.1622 15
      vertex 3.15055e-16 17.2 15
    endloop
  endfacet
  facet normal -0.382683 0.92388 4.24864e-17
    outer loop
      vertex -0.5 16.9929 -15
      vertex 3.15055e-16 17.2 15
      vertex -3.01561e-15 17.2 -15
    endloop
  endfacet
  facet normal -0.382683 0.92388 4.24864e-17
    outer loop
      vertex -0.5 16.9929 5
      vertex 3.15055e-16 17.2 15
      vertex -0.5 16.9929 -15
    endloop
  endfacet
  facet normal -0.382683 0.92388 4.24864e-17
    outer loop
      vertex -4.30639 15.4162 -15
      vertex -0.5 16.9929 -15
      vertex -3.01561e-15 17.2 -15
    endloop
  endfacet
  facet normal -0.382683 0.92388 4.24864e-17
    outer loop
      vertex -6.075 14.6837 -15
      vertex -12.1622 12.1622 15
      vertex -6.075 14.6837 5
    endloop
  endfacet
  facet normal -0.382683 0.92388 4.24864e-17
    outer loop
      vertex -6.075 14.6837 5
      vertex 3.15055e-16 17.2 15
      vertex -0.5 16.9929 5
    endloop
  endfacet
  facet normal 0 4.44089e-16 -1
    outer loop
      vertex -6.075 27.2 -15
      vertex -6.0271 27.9614 -15
      vertex -6.075 7.2 -15
    endloop
  endfacet
  facet normal 0 4.44089e-16 -1
    outer loop
      vertex -6.075 7.2 -15
      vertex -6.0271 27.9614 -15
      vertex -5.88414 28.7108 -15
    endloop
  endfacet
  facet normal 0 4.44089e-16 -1
    outer loop
      vertex -6.075 7.2 -15
      vertex -5.88414 28.7108 -15
      vertex -5.64839 29.4364 -15
    endloop
  endfacet
  facet normal 0 4.44089e-16 -1
    outer loop
      vertex -6.075 7.2 -15
      vertex -5.64839 29.4364 -15
      vertex -5.32356 30.1267 -15
    endloop
  endfacet
  facet normal 0 4.44089e-16 -1
    outer loop
      vertex -6.075 7.2 -15
      vertex -5.32356 30.1267 -15
      vertex -4.91478 30.7708 -15
    endloop
  endfacet
  facet normal 0 4.44089e-16 -1
    outer loop
      vertex -6.075 7.2 -15
      vertex -4.91478 30.7708 -15
      vertex -4.42848 31.3586 -15
    endloop
  endfacet
  facet normal 0 4.44089e-16 -1
    outer loop
      vertex -6.075 7.2 -15
      vertex -4.42848 31.3586 -15
      vertex -3.87235 31.8809 -15
    endloop
  endfacet
  facet normal 0 4.44089e-16 -1
    outer loop
      vertex -3.76559 28.6909 -15
      vertex -3.87235 31.8809 -15
      vertex -3.25515 32.3293 -15
    endloop
  endfacet
  facet normal 0 4.44089e-16 -1
    outer loop
      vertex -3.27652 29.5805 -15
      vertex -3.25515 32.3293 -15
      vertex -2.58661 32.6968 -15
    endloop
  endfacet
  facet normal 0 4.44089e-16 -1
    outer loop
      vertex -2.58157 30.3206 -15
      vertex -2.58661 32.6968 -15
      vertex -1.87728 32.9777 -15
    endloop
  endfacet
  facet normal 0 4.44089e-16 -1
    outer loop
      vertex -1.72441 30.8646 -15
      vertex -1.87728 32.9777 -15
      vertex -1.13834 33.1674 -15
    endloop
  endfacet
  facet normal 0 4.44089e-16 -1
    outer loop
      vertex -1.25152 31.0518 -15
      vertex -1.13834 33.1674 -15
      vertex -0.381452 33.263 -15
    endloop
  endfacet
  facet normal 0 4.44089e-16 -1
    outer loop
      vertex -0.254302 31.242 -15
      vertex -0.381452 33.263 -15
      vertex 0.381452 33.263 -15
    endloop
  endfacet
  facet normal 0 4.44089e-16 -1
    outer loop
      vertex 0.254302 31.242 -15
      vertex 0.381452 33.263 -15
      vertex 1.13834 33.1674 -15
    endloop
  endfacet
  facet normal 0 4.44089e-16 -1
    outer loop
      vertex 1.25152 31.0518 -15
      vertex 1.13834 33.1674 -15
      vertex 1.87728 32.9777 -15
    endloop
  endfacet
  facet normal 0 4.44089e-16 -1
    outer loop
      vertex 1.72441 30.8646 -15
      vertex 1.87728 32.9777 -15
      vertex 2.58661 32.6968 -15
    endloop
  endfacet
  facet normal 0 4.44089e-16 -1
    outer loop
      vertex 2.1701 30.6195 -15
      vertex 2.58661 32.6968 -15
      vertex 3.25515 32.3293 -15
    endloop
  endfacet
  facet normal 0 4.44089e-16 -1
    outer loop
      vertex 2.95232 29.9724 -15
      vertex 3.25515 32.3293 -15
      vertex 3.87235 31.8809 -15
    endloop
  endfacet
  facet normal 0 4.44089e-16 -1
    outer loop
      vertex 3.27652 29.5805 -15
      vertex 3.87235 31.8809 -15
      vertex 4.42848 31.3586 -15
    endloop
  endfacet
  facet normal 0 4.44089e-16 -1
    outer loop
      vertex 3.76559 28.6909 -15
      vertex 4.42848 31.3586 -15
      vertex 4.91478 30.7708 -15
    endloop
  endfacet
  facet normal 0 4.44089e-16 -1
    outer loop
      vertex 3.92276 28.2072 -15
      vertex 4.91478 30.7708 -15
      vertex 5.32356 30.1267 -15
    endloop
  endfacet
  facet normal 0 4.44089e-16 -1
    outer loop
      vertex 4.05 27.2 -15
      vertex 5.32356 30.1267 -15
      vertex 5.64839 29.4364 -15
    endloop
  endfacet
  facet normal 0 4.44089e-16 -1
    outer loop
      vertex 3.54904 25.2489 -15
      vertex 5.64839 29.4364 -15
      vertex 5.88414 28.7108 -15
    endloop
  endfacet
  facet normal 0 4.44089e-16 -1
    outer loop
      vertex 0.5 16.9929 -15
      vertex 6.075 27.2 -15
      vertex 6.075 14.6837 -15
    endloop
  endfacet
  facet normal 0 4.44089e-16 -1
    outer loop
      vertex 0.5 17.2 -15
      vertex 6.075 27.2 -15
      vertex 0.5 16.9929 -15
    endloop
  endfacet
  facet normal 0 4.44089e-16 -1
    outer loop
      vertex -4.30639 15.4162 -15
      vertex -0.758894 23.2217 -15
      vertex -0.5 23.189 -15
    endloop
  endfacet
  facet normal 0 4.44089e-16 -1
    outer loop
      vertex -4.30639 15.4162 -15
      vertex -1.72441 23.5355 -15
      vertex -1.25152 23.3482 -15
    endloop
  endfacet
  facet normal 0 4.44089e-16 -1
    outer loop
      vertex 3.92276 26.1928 -15
      vertex 5.64839 29.4364 -15
      vertex 3.76559 25.7091 -15
    endloop
  endfacet
  facet normal 0 4.44089e-16 -1
    outer loop
      vertex 3.27652 29.5805 -15
      vertex 4.42848 31.3586 -15
      vertex 3.54904 29.1511 -15
    endloop
  endfacet
  facet normal 0 4.44089e-16 -1
    outer loop
      vertex 3.76559 25.7091 -15
      vertex 5.64839 29.4364 -15
      vertex 3.54904 25.2489 -15
    endloop
  endfacet
  facet normal 0 4.44089e-16 -1
    outer loop
      vertex 3.27652 24.8195 -15
      vertex 3.54904 25.2489 -15
      vertex 5.88414 28.7108 -15
    endloop
  endfacet
  facet normal 0 4.44089e-16 -1
    outer loop
      vertex 4.05 27.2 -15
      vertex 5.64839 29.4364 -15
      vertex 4.01806 26.6924 -15
    endloop
  endfacet
  facet normal 0 4.44089e-16 -1
    outer loop
      vertex 4.01806 27.7076 -15
      vertex 5.32356 30.1267 -15
      vertex 4.05 27.2 -15
    endloop
  endfacet
  facet normal 0 4.44089e-16 -1
    outer loop
      vertex -4.30639 15.4162 -15
      vertex -0.5 17.2 -15
      vertex -0.5 16.9929 -15
    endloop
  endfacet
  facet normal 0 4.44089e-16 -1
    outer loop
      vertex 3.76559 28.6909 -15
      vertex 4.91478 30.7708 -15
      vertex 3.92276 28.2072 -15
    endloop
  endfacet
  facet normal 0 4.44089e-16 -1
    outer loop
      vertex 3.54904 29.1511 -15
      vertex 4.42848 31.3586 -15
      vertex 3.76559 28.6909 -15
    endloop
  endfacet
  facet normal 0 4.44089e-16 -1
    outer loop
      vertex 2.95232 29.9724 -15
      vertex 3.87235 31.8809 -15
      vertex 3.27652 29.5805 -15
    endloop
  endfacet
  facet normal 0 4.44089e-16 -1
    outer loop
      vertex 2.58157 30.3206 -15
      vertex 3.25515 32.3293 -15
      vertex 2.95232 29.9724 -15
    endloop
  endfacet
  facet normal 0 4.44089e-16 -1
    outer loop
      vertex 2.1701 30.6195 -15
      vertex 3.25515 32.3293 -15
      vertex 2.58157 30.3206 -15
    endloop
  endfacet
  facet normal 0 4.44089e-16 -1
    outer loop
      vertex -4.30639 15.4162 -15
      vertex -1.25152 23.3482 -15
      vertex -0.758894 23.2217 -15
    endloop
  endfacet
  facet normal 0 4.44089e-16 -1
    outer loop
      vertex 1.72441 30.8646 -15
      vertex 2.58661 32.6968 -15
      vertex 2.1701 30.6195 -15
    endloop
  endfacet
  facet normal 0 4.44089e-16 -1
    outer loop
      vertex 1.25152 31.0518 -15
      vertex 1.87728 32.9777 -15
      vertex 1.72441 30.8646 -15
    endloop
  endfacet
  facet normal 0 4.44089e-16 -1
    outer loop
      vertex 0.758894 31.1783 -15
      vertex 1.13834 33.1674 -15
      vertex 1.25152 31.0518 -15
    endloop
  endfacet
  facet normal 0 4.44089e-16 -1
    outer loop
      vertex 0.254302 31.242 -15
      vertex 1.13834 33.1674 -15
      vertex 0.758894 31.1783 -15
    endloop
  endfacet
  facet normal 0 4.44089e-16 -1
    outer loop
      vertex -0.254302 31.242 -15
      vertex 0.381452 33.263 -15
      vertex 0.254302 31.242 -15
    endloop
  endfacet
  facet normal 0 4.44089e-16 -1
    outer loop
      vertex -0.758894 31.1783 -15
      vertex -0.381452 33.263 -15
      vertex -0.254302 31.242 -15
    endloop
  endfacet
  facet normal 0 4.44089e-16 -1
    outer loop
      vertex -1.25152 31.0518 -15
      vertex -0.381452 33.263 -15
      vertex -0.758894 31.1783 -15
    endloop
  endfacet
  facet normal 0 4.44089e-16 -1
    outer loop
      vertex -1.72441 30.8646 -15
      vertex -1.13834 33.1674 -15
      vertex -1.25152 31.0518 -15
    endloop
  endfacet
  facet normal 0 4.44089e-16 -1
    outer loop
      vertex -2.1701 30.6195 -15
      vertex -1.87728 32.9777 -15
      vertex -1.72441 30.8646 -15
    endloop
  endfacet
  facet normal 0 4.44089e-16 -1
    outer loop
      vertex -2.58157 30.3206 -15
      vertex -1.87728 32.9777 -15
      vertex -2.1701 30.6195 -15
    endloop
  endfacet
  facet normal 0 4.44089e-16 -1
    outer loop
      vertex -2.95232 29.9724 -15
      vertex -2.58661 32.6968 -15
      vertex -2.58157 30.3206 -15
    endloop
  endfacet
  facet normal 0 4.44089e-16 -1
    outer loop
      vertex -3.27652 29.5805 -15
      vertex -2.58661 32.6968 -15
      vertex -2.95232 29.9724 -15
    endloop
  endfacet
  facet normal 0 4.44089e-16 -1
    outer loop
      vertex -3.76559 25.7091 -15
      vertex -6.075 7.2 -15
      vertex -3.92276 26.1928 -15
    endloop
  endfacet
  facet normal 0 4.44089e-16 -1
    outer loop
      vertex -3.54904 29.1511 -15
      vertex -3.25515 32.3293 -15
      vertex -3.27652 29.5805 -15
    endloop
  endfacet
  facet normal 0 4.44089e-16 -1
    outer loop
      vertex -3.76559 28.6909 -15
      vertex -3.25515 32.3293 -15
      vertex -3.54904 29.1511 -15
    endloop
  endfacet
  facet normal 0 4.44089e-16 -1
    outer loop
      vertex -3.92276 28.2072 -15
      vertex -3.87235 31.8809 -15
      vertex -3.76559 28.6909 -15
    endloop
  endfacet
  facet normal 0 4.44089e-16 -1
    outer loop
      vertex -4.01806 26.6924 -15
      vertex -6.075 7.2 -15
      vertex -4.05 27.2 -15
    endloop
  endfacet
  facet normal 0 4.44089e-16 -1
    outer loop
      vertex -4.01806 27.7076 -15
      vertex -3.87235 31.8809 -15
      vertex -3.92276 28.2072 -15
    endloop
  endfacet
  facet normal 0 4.44089e-16 -1
    outer loop
      vertex -6.075 7.2 -15
      vertex -3.87235 31.8809 -15
      vertex -4.01806 27.7076 -15
    endloop
  endfacet
  facet normal 0 4.44089e-16 -1
    outer loop
      vertex -6.075 7.2 -15
      vertex -4.01806 27.7076 -15
      vertex -4.05 27.2 -15
    endloop
  endfacet
  facet normal 0 4.44089e-16 -1
    outer loop
      vertex -3.92276 26.1928 -15
      vertex -6.075 7.2 -15
      vertex -4.01806 26.6924 -15
    endloop
  endfacet
  facet normal 0 4.44089e-16 -1
    outer loop
      vertex -3.54904 25.2489 -15
      vertex -6.075 7.2 -15
      vertex -3.76559 25.7091 -15
    endloop
  endfacet
  facet normal 0 4.44089e-16 -1
    outer loop
      vertex -3.27652 24.8195 -15
      vertex -6.075 7.2 -15
      vertex -3.54904 25.2489 -15
    endloop
  endfacet
  facet normal 0 4.44089e-16 -1
    outer loop
      vertex -2.95232 24.4276 -15
      vertex -6.075 7.2 -15
      vertex -3.27652 24.8195 -15
    endloop
  endfacet
  facet normal 0 4.44089e-16 -1
    outer loop
      vertex -2.58157 24.0794 -15
      vertex -6.075 7.2 -15
      vertex -2.95232 24.4276 -15
    endloop
  endfacet
  facet normal 0 4.44089e-16 -1
    outer loop
      vertex -0.5 13.457 -15
      vertex -6.075 7.2 -15
      vertex -4.30639 15.4162 -15
    endloop
  endfacet
  facet normal 0 4.44089e-16 -1
    outer loop
      vertex -2.1701 23.7805 -15
      vertex -4.30639 15.4162 -15
      vertex -2.58157 24.0794 -15
    endloop
  endfacet
  facet normal 0 4.44089e-16 -1
    outer loop
      vertex -4.30639 15.4162 -15
      vertex -0.5 23.189 -15
      vertex -0.5 17.2 -15
    endloop
  endfacet
  facet normal 0 4.44089e-16 -1
    outer loop
      vertex -6.075 7.2 -15
      vertex -2.58157 24.0794 -15
      vertex -4.30639 15.4162 -15
    endloop
  endfacet
  facet normal 0 4.44089e-16 -1
    outer loop
      vertex -0.5 7.2 -15
      vertex -6.075 7.2 -15
      vertex -0.5 13.457 -15
    endloop
  endfacet
  facet normal 0 4.44089e-16 -1
    outer loop
      vertex 3.92276 28.2072 -15
      vertex 5.32356 30.1267 -15
      vertex 4.01806 27.7076 -15
    endloop
  endfacet
  facet normal 0 4.44089e-16 -1
    outer loop
      vertex 4.01806 26.6924 -15
      vertex 5.64839 29.4364 -15
      vertex 3.92276 26.1928 -15
    endloop
  endfacet
  facet normal 0 4.44089e-16 -1
    outer loop
      vertex 3.27652 24.8195 -15
      vertex 5.88414 28.7108 -15
      vertex 6.0271 27.9614 -15
    endloop
  endfacet
  facet normal 0 4.44089e-16 -1
    outer loop
      vertex 2.95232 24.4276 -15
      vertex 3.27652 24.8195 -15
      vertex 6.0271 27.9614 -15
    endloop
  endfacet
  facet normal 0 4.44089e-16 -1
    outer loop
      vertex 2.95232 24.4276 -15
      vertex 6.0271 27.9614 -15
      vertex 6.075 27.2 -15
    endloop
  endfacet
  facet normal 0 4.44089e-16 -1
    outer loop
      vertex 2.58157 24.0794 -15
      vertex 2.95232 24.4276 -15
      vertex 6.075 27.2 -15
    endloop
  endfacet
  facet normal 0 4.44089e-16 -1
    outer loop
      vertex 2.58157 24.0794 -15
      vertex 6.075 27.2 -15
      vertex 0.5 17.2 -15
    endloop
  endfacet
  facet normal 0 4.44089e-16 -1
    outer loop
      vertex 2.1701 23.7805 -15
      vertex 2.58157 24.0794 -15
      vertex 0.5 17.2 -15
    endloop
  endfacet
  facet normal 0 4.44089e-16 -1
    outer loop
      vertex 1.72441 23.5355 -15
      vertex 2.1701 23.7805 -15
      vertex 0.5 17.2 -15
    endloop
  endfacet
  facet normal 0 4.44089e-16 -1
    outer loop
      vertex 1.25152 23.3482 -15
      vertex 1.72441 23.5355 -15
      vertex 0.5 17.2 -15
    endloop
  endfacet
  facet normal 0 4.44089e-16 -1
    outer loop
      vertex 0.758894 23.2217 -15
      vertex 1.25152 23.3482 -15
      vertex 0.5 17.2 -15
    endloop
  endfacet
  facet normal 0 4.44089e-16 -1
    outer loop
      vertex 0.5 23.189 -15
      vertex 0.758894 23.2217 -15
      vertex 0.5 17.2 -15
    endloop
  endfacet
  facet normal 0 4.44089e-16 -1
    outer loop
      vertex -4.30639 15.4162 -15
      vertex -2.1701 23.7805 -15
      vertex -1.72441 23.5355 -15
    endloop
  endfacet
  facet normal -1 0 0
    outer loop
      vertex -6.075 27.2 5
      vertex -6.075 27.2 -15
      vertex -6.075 14.6837 5
    endloop
  endfacet
  facet normal -1 0 0
    outer loop
      vertex -6.075 14.6837 -15
      vertex -6.075 27.2 -15
      vertex -6.075 7.2 -15
    endloop
  endfacet
  facet normal -1 0 0
    outer loop
      vertex -6.075 14.6837 5
      vertex -6.075 27.2 -15
      vertex -6.075 14.6837 -15
    endloop
  endfacet
  facet normal 0 4.44089e-16 -1
    outer loop
      vertex 0.5 12.9423 -15
      vertex 6.075 10.0727 -15
      vertex 0.5 7.2 -15
    endloop
  endfacet
  facet normal 0 4.44089e-16 -1
    outer loop
      vertex 0.5 7.2 -15
      vertex 6.075 10.0727 -15
      vertex 6.075 7.2 -15
    endloop
  endfacet
  facet normal 2.35514e-16 1.34693e-17 1
    outer loop
      vertex -12.1622 12.1622 15
      vertex -15.9574 3 15
      vertex -5.30764 3 15
    endloop
  endfacet
  facet normal 2.35514e-16 1.34693e-17 1
    outer loop
      vertex -4.99286 3.50448 15
      vertex -12.1622 12.1622 15
      vertex -5.26189 3.08585 15
    endloop
  endfacet
  facet normal 2.35514e-16 1.34693e-17 1
    outer loop
      vertex -5.26189 3.08585 15
      vertex -12.1622 12.1622 15
      vertex -5.30764 3 15
    endloop
  endfacet
  facet normal 2.35514e-16 1.34693e-17 1
    outer loop
      vertex -4.6906 3.89978 15
      vertex -12.1622 12.1622 15
      vertex -4.99286 3.50448 15
    endloop
  endfacet
  facet normal 2.35514e-16 1.34693e-17 1
    outer loop
      vertex -4.35712 4.26913 15
      vertex -12.1622 12.1622 15
      vertex -4.6906 3.89978 15
    endloop
  endfacet
  facet normal 2.35514e-16 1.34693e-17 1
    outer loop
      vertex -3.99465 4.61007 15
      vertex -12.1622 12.1622 15
      vertex -4.35712 4.26913 15
    endloop
  endfacet
  facet normal 2.35514e-16 1.34693e-17 1
    outer loop
      vertex -3.60559 4.92033 15
      vertex -12.1622 12.1622 15
      vertex -3.99465 4.61007 15
    endloop
  endfacet
  facet normal 2.35514e-16 1.34693e-17 1
    outer loop
      vertex -3.19254 5.19785 15
      vertex -12.1622 12.1622 15
      vertex -3.60559 4.92033 15
    endloop
  endfacet
  facet normal 2.35514e-16 1.34693e-17 1
    outer loop
      vertex -2.75825 5.44078 15
      vertex -12.1622 12.1622 15
      vertex -3.19254 5.19785 15
    endloop
  endfacet
  facet normal 2.35514e-16 1.34693e-17 1
    outer loop
      vertex -2.3056 5.6475 15
      vertex -12.1622 12.1622 15
      vertex -2.75825 5.44078 15
    endloop
  endfacet
  facet normal 2.35514e-16 1.34693e-17 1
    outer loop
      vertex -1.8376 5.81663 15
      vertex -12.1622 12.1622 15
      vertex -2.3056 5.6475 15
    endloop
  endfacet
  facet normal 2.35514e-16 1.34693e-17 1
    outer loop
      vertex -1.35738 5.94706 15
      vertex -12.1622 12.1622 15
      vertex -1.8376 5.81663 15
    endloop
  endfacet
  facet normal 2.35514e-16 1.34693e-17 1
    outer loop
      vertex -0.868121 6.03791 15
      vertex -12.1622 12.1622 15
      vertex -1.35738 5.94706 15
    endloop
  endfacet
  facet normal 2.35514e-16 1.34693e-17 1
    outer loop
      vertex -0.373086 6.08858 15
      vertex -12.1622 12.1622 15
      vertex -0.868121 6.03791 15
    endloop
  endfacet
  facet normal 2.35514e-16 1.34693e-17 1
    outer loop
      vertex 0.124431 6.09873 15
      vertex -12.1622 12.1622 15
      vertex -0.373086 6.08858 15
    endloop
  endfacet
  facet normal 2.35514e-16 1.34693e-17 1
    outer loop
      vertex 0.62112 6.06829 15
      vertex -12.1622 12.1622 15
      vertex 0.124431 6.09873 15
    endloop
  endfacet
  facet normal 2.35514e-16 1.34693e-17 1
    outer loop
      vertex 1.11368 5.99748 15
      vertex -12.1622 12.1622 15
      vertex 0.62112 6.06829 15
    endloop
  endfacet
  facet normal 2.35514e-16 1.34693e-17 1
    outer loop
      vertex 1.59882 5.88675 15
      vertex -12.1622 12.1622 15
      vertex 1.11368 5.99748 15
    endloop
  endfacet
  facet normal 2.35514e-16 1.34693e-17 1
    outer loop
      vertex 2.07333 5.73684 15
      vertex -12.1622 12.1622 15
      vertex 1.59882 5.88675 15
    endloop
  endfacet
  facet normal 2.35514e-16 1.34693e-17 1
    outer loop
      vertex 2.53403 5.54875 15
      vertex -12.1622 12.1622 15
      vertex 2.07333 5.73684 15
    endloop
  endfacet
  facet normal 2.35514e-16 1.34693e-17 1
    outer loop
      vertex 8.7 3 15
      vertex -12.1622 12.1622 15
      vertex 2.53403 5.54875 15
    endloop
  endfacet
  facet normal 2.35514e-16 1.34693e-17 1
    outer loop
      vertex 8.7 3 15
      vertex 2.53403 5.54875 15
      vertex 2.97788 5.32374 15
    endloop
  endfacet
  facet normal 2.35514e-16 1.34693e-17 1
    outer loop
      vertex 8.7 3 15
      vertex 2.97788 5.32374 15
      vertex 3.4019 5.06331 15
    endloop
  endfacet
  facet normal 2.35514e-16 1.34693e-17 1
    outer loop
      vertex 8.7 3 15
      vertex 3.4019 5.06331 15
      vertex 3.80329 4.76917 15
    endloop
  endfacet
  facet normal 2.35514e-16 1.34693e-17 1
    outer loop
      vertex 8.7 3 15
      vertex 3.80329 4.76917 15
      vertex 4.17936 4.4433 15
    endloop
  endfacet
  facet normal 2.35514e-16 1.34693e-17 1
    outer loop
      vertex 8.7 3 15
      vertex 4.17936 4.4433 15
      vertex 4.52763 4.08786 15
    endloop
  endfacet
  facet normal 2.35514e-16 1.34693e-17 1
    outer loop
      vertex 8.7 3 15
      vertex 4.52763 4.08786 15
      vertex 4.84576 3.70521 15
    endloop
  endfacet
  facet normal 2.35514e-16 1.34693e-17 1
    outer loop
      vertex 8.7 3 15
      vertex 4.84576 3.70521 15
      vertex 5.13165 3.29791 15
    endloop
  endfacet
  facet normal 2.35514e-16 1.34693e-17 1
    outer loop
      vertex 8.7 3 15
      vertex 5.13165 3.29791 15
      vertex 5.30636 3 15
    endloop
  endfacet
  facet normal 2.35514e-16 1.34693e-17 1
    outer loop
      vertex 15.9574 3 15
      vertex -12.1622 12.1622 15
      vertex 8.7 3 15
    endloop
  endfacet
  facet normal 2.35514e-16 1.34693e-17 1
    outer loop
      vertex 12.1622 12.1622 15
      vertex -12.1622 12.1622 15
      vertex 15.9574 3 15
    endloop
  endfacet
  facet normal 2.35514e-16 1.34693e-17 1
    outer loop
      vertex 3.15055e-16 17.2 15
      vertex -12.1622 12.1622 15
      vertex 12.1622 12.1622 15
    endloop
  endfacet
  facet normal 0 -2.22045e-16 1
    outer loop
      vertex -8.7 3 15
      vertex -9.47646 -3.33067e-15 15
      vertex -6.09492 -3.33067e-15 15
    endloop
  endfacet
  facet normal 0 -2.22045e-16 1
    outer loop
      vertex -6.05436 0.744775 15
      vertex -8.7 3 15
      vertex -6.09492 0.24881 15
    endloop
  endfacet
  facet normal 0 -2.22045e-16 1
    outer loop
      vertex -6.09492 0.24881 15
      vertex -8.7 3 15
      vertex -6.09492 -3.33067e-15 15
    endloop
  endfacet
  facet normal 0 -2.22045e-16 1
    outer loop
      vertex -5.97351 1.23578 15
      vertex -8.7 3 15
      vertex -6.05436 0.744775 15
    endloop
  endfacet
  facet normal 0 -2.22045e-16 1
    outer loop
      vertex -5.85291 1.71857 15
      vertex -8.7 3 15
      vertex -5.97351 1.23578 15
    endloop
  endfacet
  facet normal 0 -2.22045e-16 1
    outer loop
      vertex -5.69335 2.18992 15
      vertex -8.7 3 15
      vertex -5.85291 1.71857 15
    endloop
  endfacet
  facet normal 0 -2.22045e-16 1
    outer loop
      vertex -5.49591 2.64669 15
      vertex -8.7 3 15
      vertex -5.69335 2.18992 15
    endloop
  endfacet
  facet normal 0 -2.22045e-16 1
    outer loop
      vertex -5.30764 3 15
      vertex -8.7 3 15
      vertex -5.49591 2.64669 15
    endloop
  endfacet
  facet normal 0 2.22045e-16 -1
    outer loop
      vertex -12.1214 3.33067e-15 -15
      vertex -11.3449 3 -15
      vertex -6.09492 3.33067e-15 -15
    endloop
  endfacet
  facet normal 0 2.22045e-16 -1
    outer loop
      vertex -5.49591 2.64669 -15
      vertex -11.3449 3 -15
      vertex -5.30764 3 -15
    endloop
  endfacet
  facet normal 0 2.22045e-16 -1
    outer loop
      vertex -5.69335 2.18992 -15
      vertex -11.3449 3 -15
      vertex -5.49591 2.64669 -15
    endloop
  endfacet
  facet normal 0 2.22045e-16 -1
    outer loop
      vertex -5.85291 1.71857 -15
      vertex -11.3449 3 -15
      vertex -5.69335 2.18992 -15
    endloop
  endfacet
  facet normal 0 2.22045e-16 -1
    outer loop
      vertex -5.97351 1.23578 -15
      vertex -11.3449 3 -15
      vertex -5.85291 1.71857 -15
    endloop
  endfacet
  facet normal 0 2.22045e-16 -1
    outer loop
      vertex -6.05436 0.744775 -15
      vertex -11.3449 3 -15
      vertex -5.97351 1.23578 -15
    endloop
  endfacet
  facet normal 0 2.22045e-16 -1
    outer loop
      vertex -6.09492 0.24881 -15
      vertex -11.3449 3 -15
      vertex -6.05436 0.744775 -15
    endloop
  endfacet
  facet normal 0 2.22045e-16 -1
    outer loop
      vertex -6.09492 3.33067e-15 -15
      vertex -11.3449 3 -15
      vertex -6.09492 0.24881 -15
    endloop
  endfacet
  facet normal 0 -1 -2.22045e-16
    outer loop
      vertex -9.47646 -3.33067e-15 15
      vertex -12.1214 3.33067e-15 -15
      vertex -6.09492 3.33067e-15 -15
    endloop
  endfacet
  facet normal 0 -1 -2.22045e-16
    outer loop
      vertex -6.09492 -3.33067e-15 15
      vertex -9.47646 -3.33067e-15 15
      vertex -6.09492 3.33067e-15 -15
    endloop
  endfacet
  facet normal 0.917917 -0.396773 0
    outer loop
      vertex -5.69335 2.18992 -15
      vertex -5.49591 2.64669 -15
      vertex -5.49591 2.64669 15
    endloop
  endfacet
  facet normal 0.917917 -0.396773 0
    outer loop
      vertex -5.69335 2.18992 15
      vertex -5.69335 2.18992 -15
      vertex -5.49591 2.64669 15
    endloop
  endfacet
  facet normal 0 -2.22045e-16 1
    outer loop
      vertex 5.77794 1.95587 15
      vertex 5.91813 1.47841 15
      vertex 8.7 3 15
    endloop
  endfacet
  facet normal 0 -2.22045e-16 1
    outer loop
      vertex 8.7 3 15
      vertex 5.30636 3 15
      vertex 5.38338 2.86866 15
    endloop
  endfacet
  facet normal 0 -2.22045e-16 1
    outer loop
      vertex 5.91813 1.47841 15
      vertex 6.01895 0.991104 15
      vertex 8.7 3 15
    endloop
  endfacet
  facet normal 0 -2.22045e-16 1
    outer loop
      vertex 5.59929 2.42032 15
      vertex 8.7 3 15
      vertex 5.38338 2.86866 15
    endloop
  endfacet
  facet normal 0 -2.22045e-16 1
    outer loop
      vertex 5.59929 2.42032 15
      vertex 5.77794 1.95587 15
      vertex 8.7 3 15
    endloop
  endfacet
  facet normal 0 -2.22045e-16 1
    outer loop
      vertex 6.01895 0.991104 15
      vertex 6.0797 0.497207 15
      vertex 8.7 3 15
    endloop
  endfacet
  facet normal 0 -2.22045e-16 1
    outer loop
      vertex 6.0797 0.497207 15
      vertex 6.1 0 15
      vertex 8.7 3 15
    endloop
  endfacet
  facet normal 0 -2.22045e-16 1
    outer loop
      vertex 6.1 0 15
      vertex 6.1 -3.33067e-15 15
      vertex 8.7 3 15
    endloop
  endfacet
  facet normal 0 -2.22045e-16 1
    outer loop
      vertex 6.1 -3.33067e-15 15
      vertex 9.47646 -3.33067e-15 15
      vertex 8.7 3 15
    endloop
  endfacet
  facet normal -0.900969 -0.433883 0
    outer loop
      vertex 5.59929 2.42032 -15
      vertex 5.59929 2.42032 15
      vertex 5.38338 2.86866 -15
    endloop
  endfacet
  facet normal -0.900969 -0.433883 0
    outer loop
      vertex 5.38338 2.86866 -15
      vertex 5.59929 2.42032 15
      vertex 5.38338 2.86866 15
    endloop
  endfacet
  facet normal 0 2.22045e-16 -1
    outer loop
      vertex 5.30636 3 -15
      vertex 11.3449 3 -15
      vertex 5.38338 2.86866 -15
    endloop
  endfacet
  facet normal 0 2.22045e-16 -1
    outer loop
      vertex 5.38338 2.86866 -15
      vertex 11.3449 3 -15
      vertex 12.1214 3.33067e-15 -15
    endloop
  endfacet
  facet normal 0 2.22045e-16 -1
    outer loop
      vertex 6.0797 0.497207 -15
      vertex 12.1214 3.33067e-15 -15
      vertex 6.1 3.33067e-15 -15
    endloop
  endfacet
  facet normal 0 2.22045e-16 -1
    outer loop
      vertex 6.01895 0.991104 -15
      vertex 12.1214 3.33067e-15 -15
      vertex 6.0797 0.497207 -15
    endloop
  endfacet
  facet normal 0 2.22045e-16 -1
    outer loop
      vertex 5.91813 1.47841 -15
      vertex 12.1214 3.33067e-15 -15
      vertex 6.01895 0.991104 -15
    endloop
  endfacet
  facet normal 0 2.22045e-16 -1
    outer loop
      vertex 5.77794 1.95587 -15
      vertex 12.1214 3.33067e-15 -15
      vertex 5.91813 1.47841 -15
    endloop
  endfacet
  facet normal 0 2.22045e-16 -1
    outer loop
      vertex 5.59929 2.42032 -15
      vertex 12.1214 3.33067e-15 -15
      vertex 5.77794 1.95587 -15
    endloop
  endfacet
  facet normal 0 2.22045e-16 -1
    outer loop
      vertex 5.38338 2.86866 -15
      vertex 12.1214 3.33067e-15 -15
      vertex 5.59929 2.42032 -15
    endloop
  endfacet
  facet normal 0.964593 0.249655 0.0850419
    outer loop
      vertex 11.3449 3 -15
      vertex 8.7 3 15
      vertex 12.1214 3.33067e-15 -15
    endloop
  endfacet
  facet normal 0.964593 0.249655 0.0850419
    outer loop
      vertex 12.1214 3.33067e-15 -15
      vertex 8.7 3 15
      vertex 9.47646 -3.33067e-15 15
    endloop
  endfacet
  facet normal 0 -4.44089e-16 1
    outer loop
      vertex -6.0271 27.9614 5
      vertex -6.075 27.2 5
      vertex -6.075 14.6837 5
    endloop
  endfacet
  facet normal 0 -4.44089e-16 1
    outer loop
      vertex -0.5 17.2 5
      vertex -6.0271 27.9614 5
      vertex -0.5 16.9929 5
    endloop
  endfacet
  facet normal 0 -4.44089e-16 1
    outer loop
      vertex -0.5 16.9929 5
      vertex -6.0271 27.9614 5
      vertex -6.075 14.6837 5
    endloop
  endfacet
  facet normal 0 -4.44089e-16 1
    outer loop
      vertex 1.25152 23.3482 5
      vertex 0.5 17.2 5
      vertex 1.72441 23.5354 5
    endloop
  endfacet
  facet normal 0 -4.44089e-16 1
    outer loop
      vertex 0.758894 23.2217 5
      vertex 0.5 17.2 5
      vertex 1.25152 23.3482 5
    endloop
  endfacet
  facet normal 0 -4.44089e-16 1
    outer loop
      vertex 6.075 27.2 5
      vertex 3.92276 28.2072 5
      vertex 4.01806 27.7076 5
    endloop
  endfacet
  facet normal 0 -4.44089e-16 1
    outer loop
      vertex -3.27652 24.8195 5
      vertex -3.54904 25.2489 5
      vertex -6.0271 27.9614 5
    endloop
  endfacet
  facet normal 0 -4.44089e-16 1
    outer loop
      vertex 6.075 27.2 5
      vertex 3.76559 28.6909 5
      vertex 3.92276 28.2072 5
    endloop
  endfacet
  facet normal 0 -4.44089e-16 1
    outer loop
      vertex -3.54904 25.2489 5
      vertex -3.76559 25.7091 5
      vertex -6.0271 27.9614 5
    endloop
  endfacet
  facet normal 0 -4.44089e-16 1
    outer loop
      vertex -3.76559 25.7091 5
      vertex -3.92276 26.1928 5
      vertex -6.0271 27.9614 5
    endloop
  endfacet
  facet normal 0 -4.44089e-16 1
    outer loop
      vertex 2.1701 23.7805 5
      vertex 0.5 17.2 5
      vertex 2.58157 24.0794 5
    endloop
  endfacet
  facet normal 0 -4.44089e-16 1
    outer loop
      vertex 1.72441 23.5354 5
      vertex 0.5 17.2 5
      vertex 2.1701 23.7805 5
    endloop
  endfacet
  facet normal 0 -4.44089e-16 1
    outer loop
      vertex -3.27652 24.8195 5
      vertex -6.0271 27.9614 5
      vertex -2.95232 24.4276 5
    endloop
  endfacet
  facet normal 0 -4.44089e-16 1
    outer loop
      vertex 2.58157 24.0794 5
      vertex 0.5 17.2 5
      vertex 2.95232 24.4276 5
    endloop
  endfacet
  facet normal 0 -4.44089e-16 1
    outer loop
      vertex -4.01806 26.6924 5
      vertex -6.0271 27.9614 5
      vertex -3.92276 26.1928 5
    endloop
  endfacet
  facet normal 0 -4.44089e-16 1
    outer loop
      vertex -4.05 27.2 5
      vertex -6.0271 27.9614 5
      vertex -4.01806 26.6924 5
    endloop
  endfacet
  facet normal 0 -4.44089e-16 1
    outer loop
      vertex -4.01806 27.7076 5
      vertex -6.0271 27.9614 5
      vertex -4.05 27.2 5
    endloop
  endfacet
  facet normal 0 -4.44089e-16 1
    outer loop
      vertex -3.92276 28.2072 5
      vertex -6.0271 27.9614 5
      vertex -4.01806 27.7076 5
    endloop
  endfacet
  facet normal 0 -4.44089e-16 1
    outer loop
      vertex -3.76559 28.6909 5
      vertex -6.0271 27.9614 5
      vertex -3.92276 28.2072 5
    endloop
  endfacet
  facet normal 0 -4.44089e-16 1
    outer loop
      vertex -3.54904 29.1511 5
      vertex -6.0271 27.9614 5
      vertex -3.76559 28.6909 5
    endloop
  endfacet
  facet normal 0 -4.44089e-16 1
    outer loop
      vertex -3.27652 29.5805 5
      vertex -6.0271 27.9614 5
      vertex -3.54904 29.1511 5
    endloop
  endfacet
  facet normal 0 -4.44089e-16 1
    outer loop
      vertex -2.95232 29.9724 5
      vertex -6.0271 27.9614 5
      vertex -3.27652 29.5805 5
    endloop
  endfacet
  facet normal 0 -4.44089e-16 1
    outer loop
      vertex -2.58157 30.3206 5
      vertex -6.0271 27.9614 5
      vertex -2.95232 29.9724 5
    endloop
  endfacet
  facet normal 0 -4.44089e-16 1
    outer loop
      vertex -2.1701 30.6195 5
      vertex -6.0271 27.9614 5
      vertex -2.58157 30.3206 5
    endloop
  endfacet
  facet normal 0 -4.44089e-16 1
    outer loop
      vertex 1.13834 33.1674 5
      vertex -6.0271 27.9614 5
      vertex -2.1701 30.6195 5
    endloop
  endfacet
  facet normal 0 -4.44089e-16 1
    outer loop
      vertex 1.87728 32.9777 5
      vertex -2.1701 30.6195 5
      vertex -1.72441 30.8645 5
    endloop
  endfacet
  facet normal 0 -4.44089e-16 1
    outer loop
      vertex 2.58661 32.6968 5
      vertex -1.72441 30.8645 5
      vertex -1.25152 31.0518 5
    endloop
  endfacet
  facet normal 0 -4.44089e-16 1
    outer loop
      vertex 3.25515 32.3293 5
      vertex -1.25152 31.0518 5
      vertex -0.758894 31.1783 5
    endloop
  endfacet
  facet normal 0 -4.44089e-16 1
    outer loop
      vertex 3.87235 31.8809 5
      vertex -0.758894 31.1783 5
      vertex -0.254302 31.242 5
    endloop
  endfacet
  facet normal 0 -4.44089e-16 1
    outer loop
      vertex 4.42848 31.3586 5
      vertex -0.254302 31.242 5
      vertex 0.254302 31.242 5
    endloop
  endfacet
  facet normal 0 -4.44089e-16 1
    outer loop
      vertex 4.91478 30.7708 5
      vertex 0.254302 31.242 5
      vertex 0.758894 31.1783 5
    endloop
  endfacet
  facet normal 0 -4.44089e-16 1
    outer loop
      vertex 5.32356 30.1267 5
      vertex 0.758894 31.1783 5
      vertex 1.25152 31.0518 5
    endloop
  endfacet
  facet normal 0 -4.44089e-16 1
    outer loop
      vertex 5.64839 29.4364 5
      vertex 1.25152 31.0518 5
      vertex 1.72441 30.8645 5
    endloop
  endfacet
  facet normal 0 -4.44089e-16 1
    outer loop
      vertex 3.27652 24.8195 5
      vertex 0.5 17.2 5
      vertex 3.54904 25.2489 5
    endloop
  endfacet
  facet normal 0 -4.44089e-16 1
    outer loop
      vertex 5.88414 28.7108 5
      vertex 1.72441 30.8645 5
      vertex 2.1701 30.6195 5
    endloop
  endfacet
  facet normal 0 -4.44089e-16 1
    outer loop
      vertex 6.0271 27.9614 5
      vertex 2.1701 30.6195 5
      vertex 2.58157 30.3206 5
    endloop
  endfacet
  facet normal 0 -4.44089e-16 1
    outer loop
      vertex 2.95232 24.4276 5
      vertex 0.5 17.2 5
      vertex 3.27652 24.8195 5
    endloop
  endfacet
  facet normal 0 -4.44089e-16 1
    outer loop
      vertex 6.075 27.2 5
      vertex 6.0271 27.9614 5
      vertex 2.58157 30.3206 5
    endloop
  endfacet
  facet normal 0 -4.44089e-16 1
    outer loop
      vertex 6.075 27.2 5
      vertex 2.95232 29.9724 5
      vertex 3.27652 29.5805 5
    endloop
  endfacet
  facet normal 0 -4.44089e-16 1
    outer loop
      vertex 6.075 27.2 5
      vertex 2.58157 30.3206 5
      vertex 2.95232 29.9724 5
    endloop
  endfacet
  facet normal 0 -4.44089e-16 1
    outer loop
      vertex 6.075 14.6837 5
      vertex 4.01806 27.7076 5
      vertex 4.05 27.2 5
    endloop
  endfacet
  facet normal 0 -4.44089e-16 1
    outer loop
      vertex 6.075 27.2 5
      vertex 3.54904 29.1511 5
      vertex 3.76559 28.6909 5
    endloop
  endfacet
  facet normal 0 -4.44089e-16 1
    outer loop
      vertex 6.075 14.6837 5
      vertex 4.05 27.2 5
      vertex 4.01806 26.6924 5
    endloop
  endfacet
  facet normal 0 -4.44089e-16 1
    outer loop
      vertex 6.075 27.2 5
      vertex 3.27652 29.5805 5
      vertex 3.54904 29.1511 5
    endloop
  endfacet
  facet normal 0 -4.44089e-16 1
    outer loop
      vertex 6.075 14.6837 5
      vertex 4.01806 26.6924 5
      vertex 3.92276 26.1928 5
    endloop
  endfacet
  facet normal 0 -4.44089e-16 1
    outer loop
      vertex 6.075 14.6837 5
      vertex 3.92276 26.1928 5
      vertex 3.76559 25.7091 5
    endloop
  endfacet
  facet normal 0 -4.44089e-16 1
    outer loop
      vertex 0.5 17.2 5
      vertex 3.76559 25.7091 5
      vertex 3.54904 25.2489 5
    endloop
  endfacet
  facet normal 0 -4.44089e-16 1
    outer loop
      vertex 0.5 16.9929 5
      vertex 3.76559 25.7091 5
      vertex 0.5 17.2 5
    endloop
  endfacet
  facet normal 0 -4.44089e-16 1
    outer loop
      vertex 6.075 14.6837 5
      vertex 3.76559 25.7091 5
      vertex 0.5 16.9929 5
    endloop
  endfacet
  facet normal 0 -4.44089e-16 1
    outer loop
      vertex 6.075 27.2 5
      vertex 4.01806 27.7076 5
      vertex 6.075 14.6837 5
    endloop
  endfacet
  facet normal 0 -4.44089e-16 1
    outer loop
      vertex 5.88414 28.7108 5
      vertex 2.1701 30.6195 5
      vertex 6.0271 27.9614 5
    endloop
  endfacet
  facet normal 0 -4.44089e-16 1
    outer loop
      vertex 5.64839 29.4364 5
      vertex 1.72441 30.8645 5
      vertex 5.88414 28.7108 5
    endloop
  endfacet
  facet normal 0 -4.44089e-16 1
    outer loop
      vertex 5.32356 30.1267 5
      vertex 1.25152 31.0518 5
      vertex 5.64839 29.4364 5
    endloop
  endfacet
  facet normal 0 -4.44089e-16 1
    outer loop
      vertex 4.91478 30.7708 5
      vertex 0.758894 31.1783 5
      vertex 5.32356 30.1267 5
    endloop
  endfacet
  facet normal 0 -4.44089e-16 1
    outer loop
      vertex 4.42848 31.3586 5
      vertex 0.254302 31.242 5
      vertex 4.91478 30.7708 5
    endloop
  endfacet
  facet normal 0 -4.44089e-16 1
    outer loop
      vertex 3.87235 31.8809 5
      vertex -0.254302 31.242 5
      vertex 4.42848 31.3586 5
    endloop
  endfacet
  facet normal 0 -4.44089e-16 1
    outer loop
      vertex 3.25515 32.3293 5
      vertex -0.758894 31.1783 5
      vertex 3.87235 31.8809 5
    endloop
  endfacet
  facet normal 0 -4.44089e-16 1
    outer loop
      vertex 2.58661 32.6968 5
      vertex -1.25152 31.0518 5
      vertex 3.25515 32.3293 5
    endloop
  endfacet
  facet normal 0 -4.44089e-16 1
    outer loop
      vertex 1.87728 32.9777 5
      vertex -1.72441 30.8645 5
      vertex 2.58661 32.6968 5
    endloop
  endfacet
  facet normal 0 -4.44089e-16 1
    outer loop
      vertex 1.13834 33.1674 5
      vertex -2.1701 30.6195 5
      vertex 1.87728 32.9777 5
    endloop
  endfacet
  facet normal 0 -4.44089e-16 1
    outer loop
      vertex 0.381452 33.263 5
      vertex -6.0271 27.9614 5
      vertex 1.13834 33.1674 5
    endloop
  endfacet
  facet normal 0 -4.44089e-16 1
    outer loop
      vertex -0.381452 33.263 5
      vertex -6.0271 27.9614 5
      vertex 0.381452 33.263 5
    endloop
  endfacet
  facet normal 0 -4.44089e-16 1
    outer loop
      vertex -1.13834 33.1674 5
      vertex -6.0271 27.9614 5
      vertex -0.381452 33.263 5
    endloop
  endfacet
  facet normal 0 -4.44089e-16 1
    outer loop
      vertex -1.87728 32.9777 5
      vertex -6.0271 27.9614 5
      vertex -1.13834 33.1674 5
    endloop
  endfacet
  facet normal 0 -4.44089e-16 1
    outer loop
      vertex -2.58661 32.6968 5
      vertex -6.0271 27.9614 5
      vertex -1.87728 32.9777 5
    endloop
  endfacet
  facet normal 0 -4.44089e-16 1
    outer loop
      vertex -3.25515 32.3293 5
      vertex -6.0271 27.9614 5
      vertex -2.58661 32.6968 5
    endloop
  endfacet
  facet normal 0 -4.44089e-16 1
    outer loop
      vertex -3.87235 31.8809 5
      vertex -6.0271 27.9614 5
      vertex -3.25515 32.3293 5
    endloop
  endfacet
  facet normal 0 -4.44089e-16 1
    outer loop
      vertex -4.42848 31.3586 5
      vertex -6.0271 27.9614 5
      vertex -3.87235 31.8809 5
    endloop
  endfacet
  facet normal 0 -4.44089e-16 1
    outer loop
      vertex -4.91478 30.7708 5
      vertex -6.0271 27.9614 5
      vertex -4.42848 31.3586 5
    endloop
  endfacet
  facet normal 0 -4.44089e-16 1
    outer loop
      vertex -5.32356 30.1267 5
      vertex -6.0271 27.9614 5
      vertex -4.91478 30.7708 5
    endloop
  endfacet
  facet normal 0 -4.44089e-16 1
    outer loop
      vertex -5.64839 29.4364 5
      vertex -6.0271 27.9614 5
      vertex -5.32356 30.1267 5
    endloop
  endfacet
  facet normal 0 -4.44089e-16 1
    outer loop
      vertex -5.88414 28.7108 5
      vertex -6.0271 27.9614 5
      vertex -5.64839 29.4364 5
    endloop
  endfacet
  facet normal 0 -4.44089e-16 1
    outer loop
      vertex -0.5 17.2 5
      vertex -2.95232 24.4276 5
      vertex -6.0271 27.9614 5
    endloop
  endfacet
  facet normal 0 -4.44089e-16 1
    outer loop
      vertex -0.5 17.2 5
      vertex -2.58157 24.0794 5
      vertex -2.95232 24.4276 5
    endloop
  endfacet
  facet normal 0 -4.44089e-16 1
    outer loop
      vertex -0.5 17.2 5
      vertex -2.1701 23.7805 5
      vertex -2.58157 24.0794 5
    endloop
  endfacet
  facet normal 0 -4.44089e-16 1
    outer loop
      vertex -0.5 17.2 5
      vertex -1.72441 23.5354 5
      vertex -2.1701 23.7805 5
    endloop
  endfacet
  facet normal 0 -4.44089e-16 1
    outer loop
      vertex -0.5 17.2 5
      vertex -1.25152 23.3482 5
      vertex -1.72441 23.5354 5
    endloop
  endfacet
  facet normal 0 -4.44089e-16 1
    outer loop
      vertex -0.5 17.2 5
      vertex -0.758894 23.2217 5
      vertex -1.25152 23.3482 5
    endloop
  endfacet
  facet normal 0 -4.44089e-16 1
    outer loop
      vertex -0.5 17.2 5
      vertex -0.5 23.189 5
      vertex -0.758894 23.2217 5
    endloop
  endfacet
  facet normal 0 -4.44089e-16 1
    outer loop
      vertex 0.5 23.189 5
      vertex 0.5 17.2 5
      vertex 0.758894 23.2217 5
    endloop
  endfacet
  facet normal -1 0 0
    outer loop
      vertex 0.5 17.2 5
      vertex 0.5 17.2 -15
      vertex 0.5 16.9929 5
    endloop
  endfacet
  facet normal -1 0 0
    outer loop
      vertex 0.5 16.9929 5
      vertex 0.5 17.2 -15
      vertex 0.5 16.9929 -15
    endloop
  endfacet
  facet normal 1 0 0
    outer loop
      vertex 6.075 27.2 -15
      vertex 6.075 27.2 5
      vertex 6.075 14.6837 5
    endloop
  endfacet
  facet normal 1 0 0
    outer loop
      vertex 6.075 14.6837 -15
      vertex 6.075 27.2 -15
      vertex 6.075 14.6837 5
    endloop
  endfacet
  facet normal 1 0 0
    outer loop
      vertex -0.5 17.2 -15
      vertex -0.5 17.2 5
      vertex -0.5 16.9929 5
    endloop
  endfacet
  facet normal 1 0 0
    outer loop
      vertex -0.5 16.9929 -15
      vertex -0.5 17.2 -15
      vertex -0.5 16.9929 5
    endloop
  endfacet
  facet normal 1 0 0
    outer loop
      vertex -0.5 17.2 5
      vertex -0.5 17.2 -15
      vertex -0.5 23.189 -15
    endloop
  endfacet
  facet normal 1 0 0
    outer loop
      vertex -0.5 23.189 5
      vertex -0.5 17.2 5
      vertex -0.5 23.189 -15
    endloop
  endfacet
  facet normal 0.125334 0.992115 4.40587e-16
    outer loop
      vertex -0.5 23.189 -15
      vertex -0.758894 23.2217 -15
      vertex -0.5 23.189 5
    endloop
  endfacet
  facet normal 0.125334 0.992115 4.40587e-16
    outer loop
      vertex -0.5 23.189 5
      vertex -0.758894 23.2217 -15
      vertex -0.758894 23.2217 5
    endloop
  endfacet
  facet normal 0.248689 0.968583 4.30137e-16
    outer loop
      vertex -0.758894 23.2217 -15
      vertex -1.25152 23.3482 -15
      vertex -0.758894 23.2217 5
    endloop
  endfacet
  facet normal 0.248689 0.968583 4.30137e-16
    outer loop
      vertex -0.758894 23.2217 5
      vertex -1.25152 23.3482 -15
      vertex -1.25152 23.3482 5
    endloop
  endfacet
  facet normal 0.368124 0.929777 4.12904e-16
    outer loop
      vertex -1.25152 23.3482 -15
      vertex -1.72441 23.5355 -15
      vertex -1.25152 23.3482 5
    endloop
  endfacet
  facet normal 0.368124 0.929777 4.12904e-16
    outer loop
      vertex -1.25152 23.3482 5
      vertex -1.72441 23.5355 -15
      vertex -1.72441 23.5354 5
    endloop
  endfacet
  facet normal 0.481754 0.876307 3.89158e-16
    outer loop
      vertex -1.72441 23.5355 -15
      vertex -2.1701 23.7805 -15
      vertex -1.72441 23.5354 5
    endloop
  endfacet
  facet normal 0.481754 0.876307 3.89158e-16
    outer loop
      vertex -1.72441 23.5354 5
      vertex -2.1701 23.7805 -15
      vertex -2.1701 23.7805 5
    endloop
  endfacet
  facet normal 0.587785 0.809017 3.59276e-16
    outer loop
      vertex -2.1701 23.7805 -15
      vertex -2.58157 24.0794 -15
      vertex -2.1701 23.7805 5
    endloop
  endfacet
  facet normal 0.587785 0.809017 3.59276e-16
    outer loop
      vertex -2.1701 23.7805 5
      vertex -2.58157 24.0794 -15
      vertex -2.58157 24.0794 5
    endloop
  endfacet
  facet normal 0.684547 0.728969 3.23727e-16
    outer loop
      vertex -2.58157 24.0794 -15
      vertex -2.95232 24.4276 -15
      vertex -2.58157 24.0794 5
    endloop
  endfacet
  facet normal 0.684547 0.728969 3.23727e-16
    outer loop
      vertex -2.58157 24.0794 5
      vertex -2.95232 24.4276 -15
      vertex -2.95232 24.4276 5
    endloop
  endfacet
  facet normal 0.770514 0.637424 2.83073e-16
    outer loop
      vertex -2.95232 24.4276 5
      vertex -2.95232 24.4276 -15
      vertex -3.27652 24.8195 -15
    endloop
  endfacet
  facet normal 0.770514 0.637424 2.83073e-16
    outer loop
      vertex -3.27652 24.8195 5
      vertex -2.95232 24.4276 5
      vertex -3.27652 24.8195 -15
    endloop
  endfacet
  facet normal 0.844328 0.535826 2.37955e-16
    outer loop
      vertex -3.27652 24.8195 5
      vertex -3.27652 24.8195 -15
      vertex -3.54904 25.2489 -15
    endloop
  endfacet
  facet normal 0.844328 0.535826 2.37955e-16
    outer loop
      vertex -3.54904 25.2489 5
      vertex -3.27652 24.8195 5
      vertex -3.54904 25.2489 -15
    endloop
  endfacet
  facet normal 0.904827 0.42578 1.89084e-16
    outer loop
      vertex -3.54904 25.2489 5
      vertex -3.54904 25.2489 -15
      vertex -3.76559 25.7091 -15
    endloop
  endfacet
  facet normal 0.904827 0.42578 1.89084e-16
    outer loop
      vertex -3.76559 25.7091 5
      vertex -3.54904 25.2489 5
      vertex -3.76559 25.7091 -15
    endloop
  endfacet
  facet normal 0.951056 0.309017 1.37231e-16
    outer loop
      vertex -3.76559 25.7091 5
      vertex -3.76559 25.7091 -15
      vertex -3.92276 26.1928 -15
    endloop
  endfacet
  facet normal 0.951056 0.309017 1.37231e-16
    outer loop
      vertex -3.92276 26.1928 5
      vertex -3.76559 25.7091 5
      vertex -3.92276 26.1928 -15
    endloop
  endfacet
  facet normal 0.982287 0.187382 8.32143e-17
    outer loop
      vertex -3.92276 26.1928 5
      vertex -3.92276 26.1928 -15
      vertex -4.01806 26.6924 -15
    endloop
  endfacet
  facet normal 0.982287 0.187382 8.32143e-17
    outer loop
      vertex -4.01806 26.6924 5
      vertex -3.92276 26.1928 5
      vertex -4.01806 26.6924 -15
    endloop
  endfacet
  facet normal 0.998027 0.0627896 2.78842e-17
    outer loop
      vertex -4.01806 26.6924 5
      vertex -4.01806 26.6924 -15
      vertex -4.05 27.2 -15
    endloop
  endfacet
  facet normal 0.998027 0.0627896 2.78842e-17
    outer loop
      vertex -4.05 27.2 5
      vertex -4.01806 26.6924 5
      vertex -4.05 27.2 -15
    endloop
  endfacet
  facet normal 0.998027 -0.0627896 -2.78842e-17
    outer loop
      vertex -4.05 27.2 -15
      vertex -4.01806 27.7076 -15
      vertex -4.01806 27.7076 5
    endloop
  endfacet
  facet normal 0.998027 -0.0627896 -2.78842e-17
    outer loop
      vertex -4.05 27.2 5
      vertex -4.05 27.2 -15
      vertex -4.01806 27.7076 5
    endloop
  endfacet
  facet normal 0.982287 -0.187382 -8.32143e-17
    outer loop
      vertex -4.01806 27.7076 -15
      vertex -3.92276 28.2072 -15
      vertex -3.92276 28.2072 5
    endloop
  endfacet
  facet normal 0.982287 -0.187382 -8.32143e-17
    outer loop
      vertex -4.01806 27.7076 5
      vertex -4.01806 27.7076 -15
      vertex -3.92276 28.2072 5
    endloop
  endfacet
  facet normal 0.951056 -0.309017 -1.37231e-16
    outer loop
      vertex -3.92276 28.2072 -15
      vertex -3.76559 28.6909 -15
      vertex -3.76559 28.6909 5
    endloop
  endfacet
  facet normal 0.951056 -0.309017 -1.37231e-16
    outer loop
      vertex -3.92276 28.2072 5
      vertex -3.92276 28.2072 -15
      vertex -3.76559 28.6909 5
    endloop
  endfacet
  facet normal 0.904827 -0.42578 -1.89084e-16
    outer loop
      vertex -3.76559 28.6909 -15
      vertex -3.54904 29.1511 -15
      vertex -3.54904 29.1511 5
    endloop
  endfacet
  facet normal 0.904827 -0.42578 -1.89084e-16
    outer loop
      vertex -3.76559 28.6909 5
      vertex -3.76559 28.6909 -15
      vertex -3.54904 29.1511 5
    endloop
  endfacet
  facet normal 0.844328 -0.535826 -2.37955e-16
    outer loop
      vertex -3.54904 29.1511 -15
      vertex -3.27652 29.5805 -15
      vertex -3.27652 29.5805 5
    endloop
  endfacet
  facet normal 0.844328 -0.535826 -2.37955e-16
    outer loop
      vertex -3.54904 29.1511 5
      vertex -3.54904 29.1511 -15
      vertex -3.27652 29.5805 5
    endloop
  endfacet
  facet normal 0.770514 -0.637424 -2.83073e-16
    outer loop
      vertex -3.27652 29.5805 -15
      vertex -2.95232 29.9724 -15
      vertex -2.95232 29.9724 5
    endloop
  endfacet
  facet normal 0.770514 -0.637424 -2.83073e-16
    outer loop
      vertex -3.27652 29.5805 5
      vertex -3.27652 29.5805 -15
      vertex -2.95232 29.9724 5
    endloop
  endfacet
  facet normal 0.684547 -0.728969 -3.23727e-16
    outer loop
      vertex -2.95232 29.9724 -15
      vertex -2.58157 30.3206 -15
      vertex -2.58157 30.3206 5
    endloop
  endfacet
  facet normal 0.684547 -0.728969 -3.23727e-16
    outer loop
      vertex -2.95232 29.9724 5
      vertex -2.95232 29.9724 -15
      vertex -2.58157 30.3206 5
    endloop
  endfacet
  facet normal 0.587785 -0.809017 -3.59276e-16
    outer loop
      vertex -2.58157 30.3206 -15
      vertex -2.1701 30.6195 -15
      vertex -2.1701 30.6195 5
    endloop
  endfacet
  facet normal 0.587785 -0.809017 -3.59276e-16
    outer loop
      vertex -2.58157 30.3206 5
      vertex -2.58157 30.3206 -15
      vertex -2.1701 30.6195 5
    endloop
  endfacet
  facet normal 0.481754 -0.876307 -3.89158e-16
    outer loop
      vertex -2.1701 30.6195 -15
      vertex -1.72441 30.8646 -15
      vertex -1.72441 30.8645 5
    endloop
  endfacet
  facet normal 0.481754 -0.876307 -3.89158e-16
    outer loop
      vertex -2.1701 30.6195 5
      vertex -2.1701 30.6195 -15
      vertex -1.72441 30.8645 5
    endloop
  endfacet
  facet normal 0.368124 -0.929777 -4.12904e-16
    outer loop
      vertex -1.72441 30.8646 -15
      vertex -1.25152 31.0518 -15
      vertex -1.25152 31.0518 5
    endloop
  endfacet
  facet normal 0.368124 -0.929777 -4.12904e-16
    outer loop
      vertex -1.72441 30.8645 5
      vertex -1.72441 30.8646 -15
      vertex -1.25152 31.0518 5
    endloop
  endfacet
  facet normal 0.248689 -0.968583 -4.30137e-16
    outer loop
      vertex -1.25152 31.0518 -15
      vertex -0.758894 31.1783 -15
      vertex -0.758894 31.1783 5
    endloop
  endfacet
  facet normal 0.248689 -0.968583 -4.30137e-16
    outer loop
      vertex -1.25152 31.0518 5
      vertex -1.25152 31.0518 -15
      vertex -0.758894 31.1783 5
    endloop
  endfacet
  facet normal 0.125334 -0.992115 -4.40587e-16
    outer loop
      vertex -0.758894 31.1783 -15
      vertex -0.254302 31.242 -15
      vertex -0.254302 31.242 5
    endloop
  endfacet
  facet normal 0.125334 -0.992115 -4.40587e-16
    outer loop
      vertex -0.758894 31.1783 5
      vertex -0.758894 31.1783 -15
      vertex -0.254302 31.242 5
    endloop
  endfacet
  facet normal 0 -1 -4.44089e-16
    outer loop
      vertex -0.254302 31.242 -15
      vertex 0.254302 31.242 -15
      vertex 0.254302 31.242 5
    endloop
  endfacet
  facet normal 0 -1 -4.44089e-16
    outer loop
      vertex -0.254302 31.242 5
      vertex -0.254302 31.242 -15
      vertex 0.254302 31.242 5
    endloop
  endfacet
  facet normal -0.125334 -0.992115 -4.40587e-16
    outer loop
      vertex 0.254302 31.242 -15
      vertex 0.758894 31.1783 -15
      vertex 0.758894 31.1783 5
    endloop
  endfacet
  facet normal -0.125334 -0.992115 -4.40587e-16
    outer loop
      vertex 0.254302 31.242 5
      vertex 0.254302 31.242 -15
      vertex 0.758894 31.1783 5
    endloop
  endfacet
  facet normal -0.248689 -0.968583 -4.30137e-16
    outer loop
      vertex 0.758894 31.1783 -15
      vertex 1.25152 31.0518 -15
      vertex 1.25152 31.0518 5
    endloop
  endfacet
  facet normal -0.248689 -0.968583 -4.30137e-16
    outer loop
      vertex 0.758894 31.1783 5
      vertex 0.758894 31.1783 -15
      vertex 1.25152 31.0518 5
    endloop
  endfacet
  facet normal -0.368124 -0.929777 -4.12904e-16
    outer loop
      vertex 1.25152 31.0518 -15
      vertex 1.72441 30.8646 -15
      vertex 1.72441 30.8645 5
    endloop
  endfacet
  facet normal -0.368124 -0.929777 -4.12904e-16
    outer loop
      vertex 1.25152 31.0518 5
      vertex 1.25152 31.0518 -15
      vertex 1.72441 30.8645 5
    endloop
  endfacet
  facet normal -0.481754 -0.876307 -3.89158e-16
    outer loop
      vertex 1.72441 30.8646 -15
      vertex 2.1701 30.6195 -15
      vertex 2.1701 30.6195 5
    endloop
  endfacet
  facet normal -0.481754 -0.876307 -3.89158e-16
    outer loop
      vertex 1.72441 30.8645 5
      vertex 1.72441 30.8646 -15
      vertex 2.1701 30.6195 5
    endloop
  endfacet
  facet normal -0.587785 -0.809017 -3.59276e-16
    outer loop
      vertex 2.1701 30.6195 -15
      vertex 2.58157 30.3206 -15
      vertex 2.58157 30.3206 5
    endloop
  endfacet
  facet normal -0.587785 -0.809017 -3.59276e-16
    outer loop
      vertex 2.1701 30.6195 5
      vertex 2.1701 30.6195 -15
      vertex 2.58157 30.3206 5
    endloop
  endfacet
  facet normal -0.684547 -0.728969 -3.23727e-16
    outer loop
      vertex 2.58157 30.3206 -15
      vertex 2.95232 29.9724 -15
      vertex 2.95232 29.9724 5
    endloop
  endfacet
  facet normal -0.684547 -0.728969 -3.23727e-16
    outer loop
      vertex 2.58157 30.3206 5
      vertex 2.58157 30.3206 -15
      vertex 2.95232 29.9724 5
    endloop
  endfacet
  facet normal -0.770514 -0.637424 -2.83073e-16
    outer loop
      vertex 3.27652 29.5805 -15
      vertex 3.27652 29.5805 5
      vertex 2.95232 29.9724 -15
    endloop
  endfacet
  facet normal -0.770514 -0.637424 -2.83073e-16
    outer loop
      vertex 2.95232 29.9724 -15
      vertex 3.27652 29.5805 5
      vertex 2.95232 29.9724 5
    endloop
  endfacet
  facet normal -0.844328 -0.535826 -2.37955e-16
    outer loop
      vertex 3.54904 29.1511 -15
      vertex 3.54904 29.1511 5
      vertex 3.27652 29.5805 -15
    endloop
  endfacet
  facet normal -0.844328 -0.535826 -2.37955e-16
    outer loop
      vertex 3.27652 29.5805 -15
      vertex 3.54904 29.1511 5
      vertex 3.27652 29.5805 5
    endloop
  endfacet
  facet normal -0.904827 -0.42578 -1.89084e-16
    outer loop
      vertex 3.76559 28.6909 -15
      vertex 3.76559 28.6909 5
      vertex 3.54904 29.1511 -15
    endloop
  endfacet
  facet normal -0.904827 -0.42578 -1.89084e-16
    outer loop
      vertex 3.54904 29.1511 -15
      vertex 3.76559 28.6909 5
      vertex 3.54904 29.1511 5
    endloop
  endfacet
  facet normal -0.951056 -0.309017 -1.37231e-16
    outer loop
      vertex 3.92276 28.2072 -15
      vertex 3.92276 28.2072 5
      vertex 3.76559 28.6909 -15
    endloop
  endfacet
  facet normal -0.951056 -0.309017 -1.37231e-16
    outer loop
      vertex 3.76559 28.6909 -15
      vertex 3.92276 28.2072 5
      vertex 3.76559 28.6909 5
    endloop
  endfacet
  facet normal -0.982287 -0.187382 -8.32143e-17
    outer loop
      vertex 4.01806 27.7076 -15
      vertex 4.01806 27.7076 5
      vertex 3.92276 28.2072 -15
    endloop
  endfacet
  facet normal -0.982287 -0.187382 -8.32143e-17
    outer loop
      vertex 3.92276 28.2072 -15
      vertex 4.01806 27.7076 5
      vertex 3.92276 28.2072 5
    endloop
  endfacet
  facet normal -0.998027 -0.0627896 -2.78842e-17
    outer loop
      vertex 4.05 27.2 -15
      vertex 4.05 27.2 5
      vertex 4.01806 27.7076 -15
    endloop
  endfacet
  facet normal -0.998027 -0.0627896 -2.78842e-17
    outer loop
      vertex 4.01806 27.7076 -15
      vertex 4.05 27.2 5
      vertex 4.01806 27.7076 5
    endloop
  endfacet
  facet normal -0.998027 0.0627896 2.78842e-17
    outer loop
      vertex 4.05 27.2 -15
      vertex 4.01806 26.6924 -15
      vertex 4.05 27.2 5
    endloop
  endfacet
  facet normal -0.998027 0.0627896 2.78842e-17
    outer loop
      vertex 4.05 27.2 5
      vertex 4.01806 26.6924 -15
      vertex 4.01806 26.6924 5
    endloop
  endfacet
  facet normal -0.982287 0.187382 8.32143e-17
    outer loop
      vertex 4.01806 26.6924 -15
      vertex 3.92276 26.1928 -15
      vertex 4.01806 26.6924 5
    endloop
  endfacet
  facet normal -0.982287 0.187382 8.32143e-17
    outer loop
      vertex 4.01806 26.6924 5
      vertex 3.92276 26.1928 -15
      vertex 3.92276 26.1928 5
    endloop
  endfacet
  facet normal -0.951056 0.309017 1.37231e-16
    outer loop
      vertex 3.92276 26.1928 -15
      vertex 3.76559 25.7091 -15
      vertex 3.92276 26.1928 5
    endloop
  endfacet
  facet normal -0.951056 0.309017 1.37231e-16
    outer loop
      vertex 3.92276 26.1928 5
      vertex 3.76559 25.7091 -15
      vertex 3.76559 25.7091 5
    endloop
  endfacet
  facet normal -0.904827 0.42578 1.89084e-16
    outer loop
      vertex 3.76559 25.7091 -15
      vertex 3.54904 25.2489 -15
      vertex 3.76559 25.7091 5
    endloop
  endfacet
  facet normal -0.904827 0.42578 1.89084e-16
    outer loop
      vertex 3.76559 25.7091 5
      vertex 3.54904 25.2489 -15
      vertex 3.54904 25.2489 5
    endloop
  endfacet
  facet normal -0.844328 0.535826 2.37955e-16
    outer loop
      vertex 3.54904 25.2489 -15
      vertex 3.27652 24.8195 -15
      vertex 3.54904 25.2489 5
    endloop
  endfacet
  facet normal -0.844328 0.535826 2.37955e-16
    outer loop
      vertex 3.54904 25.2489 5
      vertex 3.27652 24.8195 -15
      vertex 3.27652 24.8195 5
    endloop
  endfacet
  facet normal -0.770514 0.637424 2.83073e-16
    outer loop
      vertex 3.27652 24.8195 -15
      vertex 2.95232 24.4276 -15
      vertex 3.27652 24.8195 5
    endloop
  endfacet
  facet normal -0.770514 0.637424 2.83073e-16
    outer loop
      vertex 3.27652 24.8195 5
      vertex 2.95232 24.4276 -15
      vertex 2.95232 24.4276 5
    endloop
  endfacet
  facet normal -0.684547 0.728969 3.23727e-16
    outer loop
      vertex 2.95232 24.4276 -15
      vertex 2.58157 24.0794 -15
      vertex 2.95232 24.4276 5
    endloop
  endfacet
  facet normal -0.684547 0.728969 3.23727e-16
    outer loop
      vertex 2.95232 24.4276 5
      vertex 2.58157 24.0794 -15
      vertex 2.58157 24.0794 5
    endloop
  endfacet
  facet normal -0.587785 0.809017 3.59276e-16
    outer loop
      vertex 2.58157 24.0794 -15
      vertex 2.1701 23.7805 -15
      vertex 2.58157 24.0794 5
    endloop
  endfacet
  facet normal -0.587785 0.809017 3.59276e-16
    outer loop
      vertex 2.58157 24.0794 5
      vertex 2.1701 23.7805 -15
      vertex 2.1701 23.7805 5
    endloop
  endfacet
  facet normal -0.481754 0.876307 3.89158e-16
    outer loop
      vertex 2.1701 23.7805 -15
      vertex 1.72441 23.5355 -15
      vertex 2.1701 23.7805 5
    endloop
  endfacet
  facet normal -0.481754 0.876307 3.89158e-16
    outer loop
      vertex 2.1701 23.7805 5
      vertex 1.72441 23.5355 -15
      vertex 1.72441 23.5354 5
    endloop
  endfacet
  facet normal -0.368124 0.929777 4.12904e-16
    outer loop
      vertex 1.72441 23.5355 -15
      vertex 1.25152 23.3482 -15
      vertex 1.72441 23.5354 5
    endloop
  endfacet
  facet normal -0.368124 0.929777 4.12904e-16
    outer loop
      vertex 1.72441 23.5354 5
      vertex 1.25152 23.3482 -15
      vertex 1.25152 23.3482 5
    endloop
  endfacet
  facet normal -0.248689 0.968583 4.30137e-16
    outer loop
      vertex 1.25152 23.3482 -15
      vertex 0.758894 23.2217 -15
      vertex 1.25152 23.3482 5
    endloop
  endfacet
  facet normal -0.248689 0.968583 4.30137e-16
    outer loop
      vertex 1.25152 23.3482 5
      vertex 0.758894 23.2217 -15
      vertex 0.758894 23.2217 5
    endloop
  endfacet
  facet normal -0.125334 0.992115 4.40587e-16
    outer loop
      vertex 0.758894 23.2217 -15
      vertex 0.5 23.189 -15
      vertex 0.758894 23.2217 5
    endloop
  endfacet
  facet normal -0.125334 0.992115 4.40587e-16
    outer loop
      vertex 0.758894 23.2217 5
      vertex 0.5 23.189 -15
      vertex 0.5 23.189 5
    endloop
  endfacet
  facet normal -1 0 0
    outer loop
      vertex 0.5 23.189 5
      vertex 0.5 23.189 -15
      vertex 0.5 17.2 5
    endloop
  endfacet
  facet normal -1 0 0
    outer loop
      vertex 0.5 17.2 5
      vertex 0.5 23.189 -15
      vertex 0.5 17.2 -15
    endloop
  endfacet
  facet normal 0.998027 0.0627903 2.78845e-17
    outer loop
      vertex 6.0271 27.9614 -15
      vertex 6.0271 27.9614 5
      vertex 6.075 27.2 5
    endloop
  endfacet
  facet normal 0.998027 0.0627903 2.78845e-17
    outer loop
      vertex 6.075 27.2 -15
      vertex 6.0271 27.9614 -15
      vertex 6.075 27.2 5
    endloop
  endfacet
  facet normal 0.982287 0.187381 8.32139e-17
    outer loop
      vertex 5.88414 28.7108 -15
      vertex 5.88414 28.7108 5
      vertex 6.0271 27.9614 5
    endloop
  endfacet
  facet normal 0.982287 0.187381 8.32139e-17
    outer loop
      vertex 6.0271 27.9614 -15
      vertex 5.88414 28.7108 -15
      vertex 6.0271 27.9614 5
    endloop
  endfacet
  facet normal 0.951056 0.309017 1.37231e-16
    outer loop
      vertex 5.64839 29.4364 -15
      vertex 5.64839 29.4364 5
      vertex 5.88414 28.7108 5
    endloop
  endfacet
  facet normal 0.951056 0.309017 1.37231e-16
    outer loop
      vertex 5.88414 28.7108 -15
      vertex 5.64839 29.4364 -15
      vertex 5.88414 28.7108 5
    endloop
  endfacet
  facet normal 0.904827 0.425779 1.89084e-16
    outer loop
      vertex 5.32356 30.1267 -15
      vertex 5.32356 30.1267 5
      vertex 5.64839 29.4364 5
    endloop
  endfacet
  facet normal 0.904827 0.425779 1.89084e-16
    outer loop
      vertex 5.64839 29.4364 -15
      vertex 5.32356 30.1267 -15
      vertex 5.64839 29.4364 5
    endloop
  endfacet
  facet normal 0.844328 0.535827 2.37955e-16
    outer loop
      vertex 4.91478 30.7708 -15
      vertex 4.91478 30.7708 5
      vertex 5.32356 30.1267 5
    endloop
  endfacet
  facet normal 0.844328 0.535827 2.37955e-16
    outer loop
      vertex 5.32356 30.1267 -15
      vertex 4.91478 30.7708 -15
      vertex 5.32356 30.1267 5
    endloop
  endfacet
  facet normal 0.770514 0.637424 2.83073e-16
    outer loop
      vertex 4.42848 31.3586 -15
      vertex 4.42848 31.3586 5
      vertex 4.91478 30.7708 5
    endloop
  endfacet
  facet normal 0.770514 0.637424 2.83073e-16
    outer loop
      vertex 4.91478 30.7708 -15
      vertex 4.42848 31.3586 -15
      vertex 4.91478 30.7708 5
    endloop
  endfacet
  facet normal 0.684547 0.728968 3.23727e-16
    outer loop
      vertex 3.87235 31.8809 5
      vertex 4.42848 31.3586 5
      vertex 3.87235 31.8809 -15
    endloop
  endfacet
  facet normal 0.684547 0.728968 3.23727e-16
    outer loop
      vertex 3.87235 31.8809 -15
      vertex 4.42848 31.3586 5
      vertex 4.42848 31.3586 -15
    endloop
  endfacet
  facet normal 0.587785 0.809017 3.59276e-16
    outer loop
      vertex 3.25515 32.3293 5
      vertex 3.87235 31.8809 5
      vertex 3.25515 32.3293 -15
    endloop
  endfacet
  facet normal 0.587785 0.809017 3.59276e-16
    outer loop
      vertex 3.25515 32.3293 -15
      vertex 3.87235 31.8809 5
      vertex 3.87235 31.8809 -15
    endloop
  endfacet
  facet normal 0.481753 0.876307 3.89158e-16
    outer loop
      vertex 2.58661 32.6968 5
      vertex 3.25515 32.3293 5
      vertex 2.58661 32.6968 -15
    endloop
  endfacet
  facet normal 0.481753 0.876307 3.89158e-16
    outer loop
      vertex 2.58661 32.6968 -15
      vertex 3.25515 32.3293 5
      vertex 3.25515 32.3293 -15
    endloop
  endfacet
  facet normal 0.368125 0.929776 4.12904e-16
    outer loop
      vertex 1.87728 32.9777 5
      vertex 2.58661 32.6968 5
      vertex 1.87728 32.9777 -15
    endloop
  endfacet
  facet normal 0.368125 0.929776 4.12904e-16
    outer loop
      vertex 1.87728 32.9777 -15
      vertex 2.58661 32.6968 5
      vertex 2.58661 32.6968 -15
    endloop
  endfacet
  facet normal 0.24869 0.968583 4.30137e-16
    outer loop
      vertex 1.13834 33.1674 5
      vertex 1.87728 32.9777 5
      vertex 1.13834 33.1674 -15
    endloop
  endfacet
  facet normal 0.24869 0.968583 4.30137e-16
    outer loop
      vertex 1.13834 33.1674 -15
      vertex 1.87728 32.9777 5
      vertex 1.87728 32.9777 -15
    endloop
  endfacet
  facet normal 0.125333 0.992115 4.40587e-16
    outer loop
      vertex 0.381452 33.263 5
      vertex 1.13834 33.1674 5
      vertex 0.381452 33.263 -15
    endloop
  endfacet
  facet normal 0.125333 0.992115 4.40587e-16
    outer loop
      vertex 0.381452 33.263 -15
      vertex 1.13834 33.1674 5
      vertex 1.13834 33.1674 -15
    endloop
  endfacet
  facet normal 0 1 4.44089e-16
    outer loop
      vertex -0.381452 33.263 5
      vertex 0.381452 33.263 5
      vertex -0.381452 33.263 -15
    endloop
  endfacet
  facet normal 0 1 4.44089e-16
    outer loop
      vertex -0.381452 33.263 -15
      vertex 0.381452 33.263 5
      vertex 0.381452 33.263 -15
    endloop
  endfacet
  facet normal -0.125333 0.992115 4.40587e-16
    outer loop
      vertex -1.13834 33.1674 5
      vertex -0.381452 33.263 5
      vertex -1.13834 33.1674 -15
    endloop
  endfacet
  facet normal -0.125333 0.992115 4.40587e-16
    outer loop
      vertex -1.13834 33.1674 -15
      vertex -0.381452 33.263 5
      vertex -0.381452 33.263 -15
    endloop
  endfacet
  facet normal -0.24869 0.968583 4.30137e-16
    outer loop
      vertex -1.87728 32.9777 5
      vertex -1.13834 33.1674 5
      vertex -1.87728 32.9777 -15
    endloop
  endfacet
  facet normal -0.24869 0.968583 4.30137e-16
    outer loop
      vertex -1.87728 32.9777 -15
      vertex -1.13834 33.1674 5
      vertex -1.13834 33.1674 -15
    endloop
  endfacet
  facet normal -0.368125 0.929776 4.12904e-16
    outer loop
      vertex -2.58661 32.6968 5
      vertex -1.87728 32.9777 5
      vertex -2.58661 32.6968 -15
    endloop
  endfacet
  facet normal -0.368125 0.929776 4.12904e-16
    outer loop
      vertex -2.58661 32.6968 -15
      vertex -1.87728 32.9777 5
      vertex -1.87728 32.9777 -15
    endloop
  endfacet
  facet normal -0.481753 0.876307 3.89158e-16
    outer loop
      vertex -3.25515 32.3293 5
      vertex -2.58661 32.6968 5
      vertex -3.25515 32.3293 -15
    endloop
  endfacet
  facet normal -0.481753 0.876307 3.89158e-16
    outer loop
      vertex -3.25515 32.3293 -15
      vertex -2.58661 32.6968 5
      vertex -2.58661 32.6968 -15
    endloop
  endfacet
  facet normal -0.587785 0.809017 3.59276e-16
    outer loop
      vertex -3.87235 31.8809 5
      vertex -3.25515 32.3293 5
      vertex -3.87235 31.8809 -15
    endloop
  endfacet
  facet normal -0.587785 0.809017 3.59276e-16
    outer loop
      vertex -3.87235 31.8809 -15
      vertex -3.25515 32.3293 5
      vertex -3.25515 32.3293 -15
    endloop
  endfacet
  facet normal -0.684547 0.728968 3.23727e-16
    outer loop
      vertex -4.42848 31.3586 5
      vertex -3.87235 31.8809 5
      vertex -4.42848 31.3586 -15
    endloop
  endfacet
  facet normal -0.684547 0.728968 3.23727e-16
    outer loop
      vertex -4.42848 31.3586 -15
      vertex -3.87235 31.8809 5
      vertex -3.87235 31.8809 -15
    endloop
  endfacet
  facet normal -0.770514 0.637424 2.83073e-16
    outer loop
      vertex -4.91478 30.7708 5
      vertex -4.42848 31.3586 5
      vertex -4.91478 30.7708 -15
    endloop
  endfacet
  facet normal -0.770514 0.637424 2.83073e-16
    outer loop
      vertex -4.91478 30.7708 -15
      vertex -4.42848 31.3586 5
      vertex -4.42848 31.3586 -15
    endloop
  endfacet
  facet normal -0.844328 0.535827 2.37955e-16
    outer loop
      vertex -5.32356 30.1267 5
      vertex -4.91478 30.7708 5
      vertex -5.32356 30.1267 -15
    endloop
  endfacet
  facet normal -0.844328 0.535827 2.37955e-16
    outer loop
      vertex -5.32356 30.1267 -15
      vertex -4.91478 30.7708 5
      vertex -4.91478 30.7708 -15
    endloop
  endfacet
  facet normal -0.904827 0.425779 1.89084e-16
    outer loop
      vertex -5.64839 29.4364 5
      vertex -5.32356 30.1267 5
      vertex -5.64839 29.4364 -15
    endloop
  endfacet
  facet normal -0.904827 0.425779 1.89084e-16
    outer loop
      vertex -5.64839 29.4364 -15
      vertex -5.32356 30.1267 5
      vertex -5.32356 30.1267 -15
    endloop
  endfacet
  facet normal -0.951056 0.309017 1.37231e-16
    outer loop
      vertex -5.88414 28.7108 5
      vertex -5.64839 29.4364 5
      vertex -5.88414 28.7108 -15
    endloop
  endfacet
  facet normal -0.951056 0.309017 1.37231e-16
    outer loop
      vertex -5.88414 28.7108 -15
      vertex -5.64839 29.4364 5
      vertex -5.64839 29.4364 -15
    endloop
  endfacet
  facet normal -0.982287 0.187381 8.32139e-17
    outer loop
      vertex -6.0271 27.9614 5
      vertex -5.88414 28.7108 5
      vertex -6.0271 27.9614 -15
    endloop
  endfacet
  facet normal -0.982287 0.187381 8.32139e-17
    outer loop
      vertex -6.0271 27.9614 -15
      vertex -5.88414 28.7108 5
      vertex -5.88414 28.7108 -15
    endloop
  endfacet
  facet normal -0.998027 0.0627903 2.78845e-17
    outer loop
      vertex -6.075 27.2 5
      vertex -6.0271 27.9614 5
      vertex -6.075 27.2 -15
    endloop
  endfacet
  facet normal -0.998027 0.0627903 2.78845e-17
    outer loop
      vertex -6.075 27.2 -15
      vertex -6.0271 27.9614 5
      vertex -6.0271 27.9614 -15
    endloop
  endfacet
  facet normal 0.947203 -0.320634 0
    outer loop
      vertex -5.85291 1.71857 -15
      vertex -5.69335 2.18992 -15
      vertex -5.69335 2.18992 15
    endloop
  endfacet
  facet normal 0.947203 -0.320634 0
    outer loop
      vertex -5.85291 1.71857 15
      vertex -5.85291 1.71857 -15
      vertex -5.69335 2.18992 15
    endloop
  endfacet
  facet normal 0.970186 -0.242361 0
    outer loop
      vertex -5.97351 1.23578 -15
      vertex -5.85291 1.71857 -15
      vertex -5.85291 1.71857 15
    endloop
  endfacet
  facet normal 0.970186 -0.242361 0
    outer loop
      vertex -5.97351 1.23578 15
      vertex -5.97351 1.23578 -15
      vertex -5.85291 1.71857 15
    endloop
  endfacet
  facet normal 0.986712 -0.162477 0
    outer loop
      vertex -6.05436 0.744775 -15
      vertex -5.97351 1.23578 -15
      vertex -5.97351 1.23578 15
    endloop
  endfacet
  facet normal 0.986712 -0.162477 0
    outer loop
      vertex -6.05436 0.744775 15
      vertex -6.05436 0.744775 -15
      vertex -5.97351 1.23578 15
    endloop
  endfacet
  facet normal 0.996673 -0.0815099 0
    outer loop
      vertex -6.09492 0.24881 -15
      vertex -6.05436 0.744775 -15
      vertex -6.05436 0.744775 15
    endloop
  endfacet
  facet normal 0.996673 -0.0815099 0
    outer loop
      vertex -6.09492 0.24881 15
      vertex -6.09492 0.24881 -15
      vertex -6.05436 0.744775 15
    endloop
  endfacet
  facet normal 1 0 0
    outer loop
      vertex -6.09492 3.33067e-15 -15
      vertex -6.09492 0.24881 -15
      vertex -6.09492 0.24881 15
    endloop
  endfacet
  facet normal 1 0 0
    outer loop
      vertex -6.09492 -3.33067e-15 15
      vertex -6.09492 3.33067e-15 -15
      vertex -6.09492 0.24881 15
    endloop
  endfacet
  facet normal 0 -1 -2.22045e-16
    outer loop
      vertex 9.47646 -3.33067e-15 15
      vertex 6.1 -3.33067e-15 15
      vertex 6.1 0 0
    endloop
  endfacet
  facet normal 0 -1 -2.22045e-16
    outer loop
      vertex 6.1 3.33067e-15 -15
      vertex 9.47646 -3.33067e-15 15
      vertex 6.1 0 0
    endloop
  endfacet
  facet normal 0 -1 -2.22045e-16
    outer loop
      vertex 6.1 3.33067e-15 -15
      vertex 12.1214 3.33067e-15 -15
      vertex 9.47646 -3.33067e-15 15
    endloop
  endfacet
  facet normal -0.999168 0.0407881 0
    outer loop
      vertex 6.1 0 15
      vertex 6.1 0 0
      vertex 6.1 -3.33067e-15 15
    endloop
  endfacet
  facet normal -0.999168 -0.0407881 0
    outer loop
      vertex 6.1 3.33067e-15 -15
      vertex 6.1 0 0
      vertex 6.0797 0.497207 -15
    endloop
  endfacet
  facet normal -0.999168 -0.0407881 0
    outer loop
      vertex 6.0797 0.497207 -15
      vertex 6.1 0 0
      vertex 6.1 0 15
    endloop
  endfacet
  facet normal -0.999168 -0.0407881 0
    outer loop
      vertex 6.0797 0.497207 -15
      vertex 6.1 0 15
      vertex 6.0797 0.497207 15
    endloop
  endfacet
  facet normal -0.992518 -0.122095 0
    outer loop
      vertex 6.0797 0.497207 -15
      vertex 6.0797 0.497207 15
      vertex 6.01895 0.991104 -15
    endloop
  endfacet
  facet normal -0.992518 -0.122095 0
    outer loop
      vertex 6.01895 0.991104 -15
      vertex 6.0797 0.497207 15
      vertex 6.01895 0.991104 15
    endloop
  endfacet
  facet normal -0.979264 -0.202588 0
    outer loop
      vertex 6.01895 0.991104 -15
      vertex 6.01895 0.991104 15
      vertex 5.91813 1.47841 -15
    endloop
  endfacet
  facet normal -0.979264 -0.202588 0
    outer loop
      vertex 5.91813 1.47841 -15
      vertex 6.01895 0.991104 15
      vertex 5.91813 1.47841 15
    endloop
  endfacet
  facet normal -0.959493 -0.281733 0
    outer loop
      vertex 5.91813 1.47841 -15
      vertex 5.91813 1.47841 15
      vertex 5.77794 1.95587 -15
    endloop
  endfacet
  facet normal -0.959493 -0.281733 0
    outer loop
      vertex 5.77794 1.95587 -15
      vertex 5.91813 1.47841 15
      vertex 5.77794 1.95587 15
    endloop
  endfacet
  facet normal -0.933337 -0.359002 0
    outer loop
      vertex 5.77794 1.95587 -15
      vertex 5.77794 1.95587 15
      vertex 5.59929 2.42032 -15
    endloop
  endfacet
  facet normal -0.933337 -0.359002 0
    outer loop
      vertex 5.59929 2.42032 -15
      vertex 5.77794 1.95587 15
      vertex 5.59929 2.42032 15
    endloop
  endfacet
endsolid OpenSCAD_Model
